<svg width="778" height="432" xmlns="http://www.w3.org/2000/svg" xmlns:xlink="http://www.w3.org/1999/xlink" overflow="hidden"><g transform="translate(-38 -135)"><rect x="155" y="459" width="116" height="44" stroke="#000000" stroke-width="2" stroke-miterlimit="8" fill="#FCE0E1"/><text font-family="Times New Roman,Times New Roman_MSFontService,sans-serif" font-weight="400" font-size="19" transform="translate(193.253 477)">Input</text><text font-family="Times New Roman,Times New Roman_MSFontService,sans-serif" font-weight="400" font-size="19" transform="translate(169.919 499)">Embedding</text><path d="M199.5 423C199.5 414.992 205.768 408.5 213.5 408.5 221.232 408.5 227.5 414.992 227.5 423 227.5 431.008 221.232 437.5 213.5 437.5 205.768 437.5 199.5 431.008 199.5 423Z" stroke="#000000" stroke-width="1.33333" stroke-miterlimit="8" fill="#FFFFFF" fill-rule="evenodd"/><text font-family="Calibri,Calibri_MSFontService,sans-serif" font-weight="400" font-size="24" transform="translate(207.188 429)">+</text><path d="M135.5 423.5C135.5 415.768 141.992 409.5 150 409.5 158.008 409.5 164.5 415.768 164.5 423.5 164.5 431.232 158.008 437.5 150 437.5 141.992 437.5 135.5 431.232 135.5 423.5Z" stroke="#000000" stroke-width="1.33333" stroke-miterlimit="8" fill="#FFFFFF" fill-rule="evenodd"/><path d="M135.5 422.907C138.536 420.342 141.573 417.777 144.919 418.688 148.265 419.598 152.313 427.583 155.577 428.369 158.84 429.155 161.67 426.279 164.5 423.404" stroke="#000000" stroke-width="1.33333" stroke-miterlimit="8" fill="none" fill-rule="evenodd"/><path d="M0 0 35.2039 0.525039" stroke="#000000" stroke-width="2" stroke-miterlimit="8" fill="none" fill-rule="evenodd" transform="matrix(1 0 0 -1 164 422.525)"/><text font-family="Times New Roman,Times New Roman_MSFontService,sans-serif" font-weight="400" font-size="19" transform="translate(50.5014 413)">Positional</text><text font-family="Times New Roman,Times New Roman_MSFontService,sans-serif" font-weight="400" font-size="19" transform="translate(52.088 435)">Encoding</text><path d="M0.999927-0.012042 1.1881 15.6131-0.811756 15.6372-0.999927 0.012042ZM4.17183 14.2437 0.268451 22.2913-3.82759 14.3401Z" transform="matrix(1 0 0 -1 213 459.291)"/><text font-family="Cambria Math,Cambria Math_MSFontService,sans-serif" font-weight="400" font-size="19" transform="translate(205.669 548)">洧냠</text><path d="M1-4.02646e-06 1.00008 19.4076-0.999922 19.4076-1 4.02646e-06ZM4.00007 18.0742 0.000104987 26.0742-3.99993 18.0742Z" transform="matrix(1 0 0 -1 213 529.074)"/><path d="M212.269 408.62 212.083 393.679 214.083 393.654 214.268 408.595ZM209.1 395.049 213 387 217.099 394.95Z"/><rect x="320" y="136" width="249" height="429" stroke="#000000" stroke-width="2" stroke-miterlimit="8" fill="#FFE2BB"/><text font-family="Times New Roman,Times New Roman_MSFontService,sans-serif" font-weight="400" font-size="19" transform="translate(363.355 159)">Multi</text><text font-family="Times New Roman,Times New Roman_MSFontService,sans-serif" font-weight="400" font-size="19" transform="translate(404.855 159)">-</text><text font-family="Times New Roman,Times New Roman_MSFontService,sans-serif" font-weight="400" font-size="19" transform="translate(411.022 159)">Head</text><text font-family="Times New Roman,Times New Roman_MSFontService,sans-serif" font-weight="400" font-size="19" transform="translate(455.189 159)">Attention</text><text font-family="Cambria Math,Cambria Math_MSFontService,sans-serif" font-weight="400" font-size="19" transform="translate(204.086 382)">洧</text><text font-family="Cambria Math,Cambria Math_MSFontService,sans-serif" font-weight="400" font-size="24" transform="translate(517.061 228)">洧누</text><text font-family="Cambria Math,Cambria Math_MSFontService,sans-serif" font-weight="400" font-size="18" transform="translate(531.675 233)">1</text><text font-family="Cambria Math,Cambria Math_MSFontService,sans-serif" font-weight="400" font-size="24" transform="translate(517.373 273)">洧누</text><text font-family="Cambria Math,Cambria Math_MSFontService,sans-serif" font-weight="400" font-size="18" transform="translate(532.54 278)">2</text><text font-family="Cambria Math,Cambria Math_MSFontService,sans-serif" font-weight="400" font-size="24" transform="translate(517.094 317)">洧누</text><text font-family="Cambria Math,Cambria Math_MSFontService,sans-serif" font-weight="400" font-size="18" transform="translate(532.261 322)">3</text><text font-family="Cambria Math,Cambria Math_MSFontService,sans-serif" font-weight="400" font-size="24" transform="translate(517.373 362)">洧누</text><text font-family="Cambria Math,Cambria Math_MSFontService,sans-serif" font-weight="400" font-size="18" transform="translate(532.54 367)">4</text><text font-family="Cambria Math,Cambria Math_MSFontService,sans-serif" font-weight="400" font-size="24" transform="translate(517.373 406)">洧누</text><text font-family="Cambria Math,Cambria Math_MSFontService,sans-serif" font-weight="400" font-size="18" transform="translate(532.54 411)">5</text><text font-family="Cambria Math,Cambria Math_MSFontService,sans-serif" font-weight="400" font-size="24" transform="translate(517.373 452)">洧누</text><text font-family="Cambria Math,Cambria Math_MSFontService,sans-serif" font-weight="400" font-size="18" transform="translate(532.54 457)">6</text><text font-family="Cambria Math,Cambria Math_MSFontService,sans-serif" font-weight="400" font-size="24" transform="translate(516.476 496)">洧누</text><text font-family="Cambria Math,Cambria Math_MSFontService,sans-serif" font-weight="400" font-size="18" transform="translate(531.643 501)">7</text><text font-family="Cambria Math,Cambria Math_MSFontService,sans-serif" font-weight="400" font-size="24" transform="translate(516.476 539)">洧누</text><text font-family="Cambria Math,Cambria Math_MSFontService,sans-serif" font-weight="400" font-size="18" transform="translate(531.643 544)">8</text><text font-family="Cambria Math,Cambria Math_MSFontService,sans-serif" font-weight="400" font-size="24" transform="translate(631.651 384)">洧누</text><rect x="343" y="170" width="143" height="383" stroke="#000000" stroke-width="2" stroke-miterlimit="8" fill="#C2E8F7"/><text font-family="Times New Roman,Times New Roman_MSFontService,sans-serif" font-weight="400" font-size="19" transform="translate(353.651 193)">Attention Heads</text><rect x="362" y="203" width="105" height="33" stroke="#000000" stroke-width="2" stroke-miterlimit="8" fill="#9DC3E6"/><text font-family="Times New Roman,Times New Roman_MSFontService,sans-serif" font-weight="400" font-size="19" transform="translate(387.901 226)">Head 1</text><rect x="362" y="249" width="105" height="32" stroke="#000000" stroke-width="2" stroke-miterlimit="8" fill="#9DC3E6"/><text font-family="Times New Roman,Times New Roman_MSFontService,sans-serif" font-weight="400" font-size="19" transform="translate(387.901 272)">Head 2</text><rect x="362" y="293" width="105" height="32" stroke="#000000" stroke-width="2" stroke-miterlimit="8" fill="#9DC3E6"/><text font-family="Times New Roman,Times New Roman_MSFontService,sans-serif" font-weight="400" font-size="19" transform="translate(387.901 315)">Head 3</text><rect x="362" y="337" width="105" height="33" stroke="#000000" stroke-width="2" stroke-miterlimit="8" fill="#9DC3E6"/><text font-family="Times New Roman,Times New Roman_MSFontService,sans-serif" font-weight="400" font-size="19" transform="translate(387.901 360)">Head 4</text><rect x="362" y="382" width="105" height="32" stroke="#000000" stroke-width="2" stroke-miterlimit="8" fill="#9DC3E6"/><text font-family="Times New Roman,Times New Roman_MSFontService,sans-serif" font-weight="400" font-size="19" transform="translate(387.901 405)">Head 5</text><rect x="362" y="427" width="105" height="33" stroke="#000000" stroke-width="2" stroke-miterlimit="8" fill="#9DC3E6"/><text font-family="Times New Roman,Times New Roman_MSFontService,sans-serif" font-weight="400" font-size="19" transform="translate(387.901 450)">Head 6</text><rect x="362" y="471" width="105" height="33" stroke="#000000" stroke-width="2" stroke-miterlimit="8" fill="#9DC3E6"/><text font-family="Times New Roman,Times New Roman_MSFontService,sans-serif" font-weight="400" font-size="19" transform="translate(387.853 494)">Head 7</text><rect x="362" y="514" width="105" height="32" stroke="#000000" stroke-width="2" stroke-miterlimit="8" fill="#9DC3E6"/><text font-family="Times New Roman,Times New Roman_MSFontService,sans-serif" font-weight="400" font-size="19" transform="translate(388.038 537)">Head 8</text><path d="M0-1 63.6963-1 63.6963 156.034 62.6963 155.034 118.726 155.034 118.726 157.034 61.6963 157.034 61.6963 0 62.6963 1 0 1ZM117.393 152.034 125.393 156.034 117.393 160.034Z" transform="matrix(1 0 0 -1 237 375.034)"/><path d="M0-1 63.6963-1 63.6963 110.414 62.6963 109.414 118.726 109.414 118.726 111.414 61.6963 111.414 61.6963 0 62.6963 1 0 1ZM117.393 106.414 125.393 110.414 117.393 114.414Z" transform="matrix(1 0 0 -1 237 375.414)"/><path d="M0-1 63.6963-1 63.6963 66.4831 62.6963 65.4831 118.726 65.4831 118.726 67.4831 61.6963 67.4831 61.6963 0 62.6963 1 0 1ZM117.393 62.4831 125.393 66.4831 117.393 70.4831Z" transform="matrix(1 0 0 -1 237 375.483)"/><path d="M0-1 63.6963-1 63.6963 21.8164 62.6963 20.8164 118.726 20.8164 118.726 22.8164 61.6963 22.8164 61.6963 0 62.6963 1 0 1ZM117.393 17.8164 125.393 21.8164 117.393 25.8164Z" transform="matrix(1 0 0 -1 237 375.816)"/><path d="M237 374 300.696 374 300.696 397.77 299.696 396.77 355.726 396.77 355.726 398.77 298.696 398.77 298.696 375 299.696 376 237 376ZM354.393 393.77 362.393 397.77 354.393 401.77Z"/><path d="M237 374 300.696 374 300.696 443.159 299.696 442.159 355.726 442.159 355.726 444.159 298.696 444.159 298.696 375 299.696 376 237 376ZM354.392 439.159 362.392 443.159 354.392 447.159Z"/><path d="M237 374 300.672 374 300.672 487.212 299.672 486.212 355.678 486.212 355.678 488.212 298.672 488.212 298.672 375 299.672 376 237 376ZM354.345 483.212 362.345 487.212 354.345 491.212Z"/><path d="M237 374 300.765 374 300.765 529.921 299.765 528.921 355.863 528.921 355.863 530.921 298.765 530.921 298.765 375 299.765 376 237 376ZM354.53 525.921 362.53 529.921 354.53 533.921Z"/><path d="M467.001 218 498.329 218.036 498.327 220.036 466.999 220ZM496.999 215.034 504.995 219.044 496.99 223.034Z"/><path d="M467 264 498.667 264 498.667 266 467 266ZM497.333 261 505.333 265 497.333 269Z"/><path d="M467 308 498.387 308.001 498.387 310.001 467 310ZM497.054 305.001 505.054 309.001 497.054 313.001Z"/><path d="M0.00161314-0.999999 31.6683-0.948916 31.6651 1.05108-0.00161314 0.999999ZM30.3398-3.95106 38.3333 0.0618373 30.3269 4.04893Z" transform="matrix(1 0 0 -1 467 353.062)"/><path d="M0.00772315-0.99997 31.6746-0.755395 31.6591 1.24455-0.00772315 0.99997ZM30.3645-3.7656 38.3333 0.296063 30.3027 4.23416Z" transform="matrix(1 0 0 -1 467 398.296)"/><path d="M467 443 498.667 443 498.667 445 467 445ZM497.333 440 505.333 444 497.333 448Z"/><path d="M0.00753688-0.999972 30.825-0.767698 30.8099 1.23225-0.00753688 0.999972ZM29.5143-3.77766 37.4839 0.28252 29.454 4.22211Z" transform="matrix(1 0 0 -1 467 487.283)"/><path d="M0.00137077-0.999999 30.6339-0.958009 30.6312 1.04199-0.00137077 0.999999ZM29.3047-3.95983 37.2992 0.0511286 29.2937 4.04016Z" transform="matrix(1 0 0 -1 467 530.051)"/><path d="M555 218 588.27 218 588.27 374.728 587.27 373.728 612.873 373.728 612.873 375.728 586.27 375.728 586.27 219 587.27 220 555 220ZM611.54 370.728 619.54 374.728 611.54 378.728Z"/><path d="M555 264 587.821 264 587.821 375.152 586.821 374.152 611.976 374.152 611.976 376.152 585.821 376.152 585.821 265 586.821 266 555 266ZM610.642 371.152 618.642 375.152 610.642 379.152Z"/><path d="M555 308 587.961 308 587.961 375.22 586.961 374.22 612.255 374.22 612.255 376.22 585.961 376.22 585.961 309 586.961 310 555 310ZM610.922 371.22 618.922 375.22 610.922 379.22Z"/><path d="M555 352 587.821 352 587.821 374.616 586.821 373.616 611.976 373.616 611.976 375.616 585.821 375.616 585.821 353 586.821 354 555 354ZM610.642 370.616 618.642 374.616 610.642 378.616Z"/><path d="M0-1 32.8212-1 32.8212 22.7364 31.8212 21.7364 56.9757 21.7364 56.9757 23.7364 30.8212 23.7364 30.8212 0 31.8212 1 0 1ZM55.6424 18.7364 63.6424 22.7364 55.6424 26.7364Z" transform="matrix(1 0 0 -1 555 397.736)"/><path d="M0-1 32.8212-1 32.8212 68.4214 31.8212 67.4214 56.9757 67.4214 56.9757 69.4214 30.8212 69.4214 30.8212 0 31.8212 1 0 1ZM55.6424 64.4214 63.6424 68.4214 55.6424 72.4214Z" transform="matrix(1 0 0 -1 555 443.421)"/><path d="M0-1 33.2698-1 33.2698 112.191 32.2698 111.191 57.8729 111.191 57.8729 113.191 31.2698 113.191 31.2698 0 32.2698 1 0 1ZM56.5395 108.191 64.5395 112.191 56.5395 116.191Z" transform="matrix(1 0 0 -1 555 487.191)"/><path d="M0-1 33.2698-1 33.2698 155.132 32.2698 154.132 57.8729 154.132 57.8729 156.132 31.2698 156.132 31.2698 0 32.2698 1 0 1ZM56.5395 151.132 64.5395 155.132 56.5395 159.132Z" transform="matrix(1 0 0 -1 555 530.132)"/><rect x="682" y="353" width="73" height="45" stroke="#000000" stroke-width="2" stroke-miterlimit="8" fill="#C5E0B4"/><text font-family="Times New Roman,Times New Roman_MSFontService,sans-serif" font-weight="400" font-size="19" transform="translate(694.256 382)">Linear</text><path d="M659.015 374 675.016 374.24 674.986 376.24 658.985 376ZM673.728 371.22 681.667 375.34 673.608 379.219Z"/><text font-family="Cambria Math,Cambria Math_MSFontService,sans-serif" font-weight="400" font-size="24" transform="translate(785.616 384)">洧놆</text><path d="M0.01713-0.999853 13.1692-0.774526 13.1349 1.22518-0.01713 0.999853ZM11.8874-3.79693 19.8177 0.339528 11.7504 4.2019Z" transform="matrix(1 0 0 -1 755 375.34)"/></g></svg>