<svg width="197" height="446" xmlns="http://www.w3.org/2000/svg" xmlns:xlink="http://www.w3.org/1999/xlink" overflow="hidden"><g transform="translate(-309 -147)"><rect x="331" y="188" width="174" height="374" stroke="#000000" stroke-width="2" stroke-miterlimit="8" fill="#F3F3F4"/><rect x="344" y="467" width="124" height="73" stroke="#000000" stroke-width="2" stroke-miterlimit="8" fill="#FFE2BB"/><text font-family="Times New Roman,Times New Roman_MSFontService,sans-serif" font-weight="400" font-size="19" transform="translate(376.675 488)">Masked</text><text font-family="Times New Roman,Times New Roman_MSFontService,sans-serif" font-weight="400" font-size="19" transform="translate(362.755 510)">Multi</text><text font-family="Times New Roman,Times New Roman_MSFontService,sans-serif" font-weight="400" font-size="19" transform="translate(404.255 510)">-</text><text font-family="Times New Roman,Times New Roman_MSFontService,sans-serif" font-weight="400" font-size="19" transform="translate(410.421 510)">Head</text><text font-family="Times New Roman,Times New Roman_MSFontService,sans-serif" font-weight="400" font-size="19" transform="translate(371.088 533)">Attention</text><rect x="344" y="238" width="124" height="54" stroke="#000000" stroke-width="2" stroke-miterlimit="8" fill="#C2E8F7"/><text font-family="Times New Roman,Times New Roman_MSFontService,sans-serif" font-weight="400" font-size="19" transform="translate(358.36 272)">Feedforward</text><path d="M405.311 467.328 405.033 411.672 407.033 411.662 407.311 467.318ZM402.04 413.02 406 405 410.04 412.98Z"/><rect x="344" y="201" width="124" height="32" stroke="#000000" stroke-width="2" stroke-miterlimit="8" fill="#CCE7CF"/><text font-family="Times New Roman,Times New Roman_MSFontService,sans-serif" font-weight="400" font-size="19" transform="translate(356.277 224)">Add &amp; Norm</text><rect x="344" y="429" width="124" height="33" stroke="#000000" stroke-width="2" stroke-miterlimit="8" fill="#CCE7CF"/><text font-family="Times New Roman,Times New Roman_MSFontService,sans-serif" font-weight="400" font-size="19" transform="translate(356.588 452)">Add &amp; Norm</text><path d="M0.999982-0.00594811 1.27182 45.6955-0.72814 45.7074-0.999982 0.00594811ZM4.26384 44.3443 0.311496 52.368-3.73602 44.3919Z" transform="matrix(1 0 0 -1 406 592.368)"/><path d="M0-1 39.6758-1 39.6758 19.1774 38.6758 18.1774 46.1858 18.1774 46.1858 20.1774 37.6758 20.1774 37.6758 0 38.6758 1 0 1ZM44.8525 15.1774 52.8525 19.1774 44.8525 23.1774Z" transform="matrix(-1.83697e-16 -1 -1 1.83697e-16 406.177 591.852)"/><path d="M405 591.852 405 552.176 424.898 552.176 423.898 553.176 423.898 545.667 425.898 545.667 425.898 554.176 406 554.176 407 553.176 407 591.852ZM420.898 547 424.898 539 428.898 547Z"/><path d="M0-1 86.801-1 86.801 131.765 68.4678 131.765 68.4678 129.765 85.801 129.765 84.801 130.765 84.801 0 85.801 1 0 1ZM69.8012 134.765 61.8012 130.765 69.8012 126.765Z" transform="matrix(1 0 0 -1 406 575.765)"/><rect x="344" y="351" width="124" height="54" stroke="#000000" stroke-width="2" stroke-miterlimit="8" fill="#FFE2BB"/><text font-family="Times New Roman,Times New Roman_MSFontService,sans-serif" font-weight="400" font-size="19" transform="translate(362.443 374)">Multi</text><text font-family="Times New Roman,Times New Roman_MSFontService,sans-serif" font-weight="400" font-size="19" transform="translate(403.943 374)">-</text><text font-family="Times New Roman,Times New Roman_MSFontService,sans-serif" font-weight="400" font-size="19" transform="translate(410.11 374)">Head</text><text font-family="Times New Roman,Times New Roman_MSFontService,sans-serif" font-weight="400" font-size="19" transform="translate(370.777 396)">Attention</text><path d="M1-1.79454e-06 1.00009 51.8367-0.999907 51.8368-1 1.79454e-06ZM4.00009 50.5034 0.000104987 58.5034-3.99991 50.5034Z" transform="matrix(1 0 0 -1 406 350.503)"/><rect x="343" y="314" width="124" height="32" stroke="#000000" stroke-width="2" stroke-miterlimit="8" fill="#CCE7CF"/><text font-family="Times New Roman,Times New Roman_MSFontService,sans-serif" font-weight="400" font-size="19" transform="translate(355.684 337)">Add &amp; Norm</text><path d="M0-1 86.5123-1 86.5123 90.6934 68.1792 90.6934 68.1792 88.6934 85.5123 88.6934 84.5123 89.6934 84.5123 0 85.5123 1 0 1ZM69.5125 93.6934 61.5125 89.6934 69.5125 85.6934Z" transform="matrix(1 0 0 -1 406 419.693)"/><path d="M0-1 87.2364-1 87.2364 87.7384 68.9033 87.7384 68.9033 85.7384 86.2364 85.7384 85.2364 86.7384 85.2364 0 86.2364 1 0 1ZM70.2366 90.7384 62.2366 86.7384 70.2366 82.7384Z" transform="matrix(1 0 0 -1 406 303.738)"/><path d="M405.045 200.867 405.007 161.668 407.007 161.666 407.045 200.865ZM402.008 163.004 406 155 410.008 162.996Z"/><path d="M0-1 59.711-1 59.711 7.36598 57.711 7.36598 57.711 0 58.711 1 0 1ZM62.711 6.03265 58.711 14.0327 54.711 6.03265Z" transform="matrix(1 0 0 -1 329 419.033)"/><path d="M0-1 59.711-1 59.711 7.36598 57.711 7.36598 57.711 0 58.711 1 0 1ZM62.711 6.03265 58.711 14.0327 54.711 6.03265Z" transform="matrix(1 0 0 -1 310 419.033)"/><rect x="339.5" y="348.5" width="133" height="59" stroke="#FF0000" stroke-width="1.33333" stroke-miterlimit="8" fill="none"/></g></svg>