<svg width="197" height="446" xmlns="http://www.w3.org/2000/svg" xmlns:xlink="http://www.w3.org/1999/xlink" overflow="hidden"><g transform="translate(-40 -147)"><rect x="62" y="188" width="173" height="374" stroke="#000000" stroke-width="2" stroke-miterlimit="8" fill="#F3F3F4"/><rect x="75" y="467" width="124" height="73" stroke="#000000" stroke-width="2" stroke-miterlimit="8" fill="#FFE2BB"/><text font-family="Times New Roman,Times New Roman_MSFontService,sans-serif" font-weight="400" font-size="19" transform="translate(107.398 488)">Masked</text><text font-family="Times New Roman,Times New Roman_MSFontService,sans-serif" font-weight="400" font-size="19" transform="translate(93.4782 510)">Multi</text><text font-family="Times New Roman,Times New Roman_MSFontService,sans-serif" font-weight="400" font-size="19" transform="translate(134.978 510)">-</text><text font-family="Times New Roman,Times New Roman_MSFontService,sans-serif" font-weight="400" font-size="19" transform="translate(141.145 510)">Head</text><text font-family="Times New Roman,Times New Roman_MSFontService,sans-serif" font-weight="400" font-size="19" transform="translate(101.811 533)">Attention</text><rect x="75" y="238" width="124" height="54" stroke="#000000" stroke-width="2" stroke-miterlimit="8" fill="#C2E8F7"/><text font-family="Times New Roman,Times New Roman_MSFontService,sans-serif" font-weight="400" font-size="19" transform="translate(89.0834 272)">Feedforward</text><path d="M136.312 467.328 136.033 411.672 138.033 411.662 138.311 467.318ZM133.04 413.02 137 405 141.04 412.98Z"/><rect x="75" y="201" width="124" height="32" stroke="#000000" stroke-width="2" stroke-miterlimit="8" fill="#CCE7CF"/><text font-family="Times New Roman,Times New Roman_MSFontService,sans-serif" font-weight="400" font-size="19" transform="translate(87 224)">Add &amp; Norm</text><rect x="75" y="429" width="124" height="33" stroke="#000000" stroke-width="2" stroke-miterlimit="8" fill="#CCE7CF"/><text font-family="Times New Roman,Times New Roman_MSFontService,sans-serif" font-weight="400" font-size="19" transform="translate(87.3115 452)">Add &amp; Norm</text><path d="M0.999982-0.00594811 1.27182 45.6955-0.72814 45.7074-0.999982 0.00594811ZM4.26384 44.3443 0.311496 52.368-3.73602 44.3919Z" transform="matrix(1 0 0 -1 137 592.368)"/><path d="M0-1 39.6758-1 39.6758 19.1774 38.6758 18.1774 46.1858 18.1774 46.1858 20.1774 37.6758 20.1774 37.6758 0 38.6758 1 0 1ZM44.8525 15.1774 52.8525 19.1774 44.8525 23.1774Z" transform="matrix(-1.83697e-16 -1 -1 1.83697e-16 137.177 591.852)"/><path d="M136 591.852 136 552.176 155.898 552.176 154.898 553.176 154.898 545.667 156.898 545.667 156.898 554.176 137 554.176 138 553.176 138 591.852ZM151.898 547 155.898 539 159.898 547Z"/><path d="M0-1 86.801-1 86.801 131.765 68.4678 131.765 68.4678 129.765 85.801 129.765 84.801 130.765 84.801 0 85.801 1 0 1ZM69.8012 134.765 61.8012 130.765 69.8012 126.765Z" transform="matrix(1 0 0 -1 137 575.765)"/><rect x="75" y="351" width="124" height="54" stroke="#000000" stroke-width="2" stroke-miterlimit="8" fill="#FFE2BB"/><text font-family="Times New Roman,Times New Roman_MSFontService,sans-serif" font-weight="400" font-size="19" transform="translate(93.1667 374)">Multi</text><text font-family="Times New Roman,Times New Roman_MSFontService,sans-serif" font-weight="400" font-size="19" transform="translate(134.667 374)">-</text><text font-family="Times New Roman,Times New Roman_MSFontService,sans-serif" font-weight="400" font-size="19" transform="translate(140.833 374)">Head</text><text font-family="Times New Roman,Times New Roman_MSFontService,sans-serif" font-weight="400" font-size="19" transform="translate(101.5 396)">Attention</text><path d="M1-1.79454e-06 1.00009 51.8367-0.999907 51.8368-1 1.79454e-06ZM4.00009 50.5034 0.000104987 58.5034-3.99991 50.5034Z" transform="matrix(1 0 0 -1 137 350.503)"/><rect x="74" y="314" width="124" height="32" stroke="#000000" stroke-width="2" stroke-miterlimit="8" fill="#CCE7CF"/><text font-family="Times New Roman,Times New Roman_MSFontService,sans-serif" font-weight="400" font-size="19" transform="translate(86.4073 337)">Add &amp; Norm</text><path d="M0-1 86.5123-1 86.5123 90.6934 68.1792 90.6934 68.1792 88.6934 85.5123 88.6934 84.5123 89.6934 84.5123 0 85.5123 1 0 1ZM69.5125 93.6934 61.5125 89.6934 69.5125 85.6934Z" transform="matrix(1 0 0 -1 137 419.693)"/><path d="M0-1 87.2364-1 87.2364 87.7384 68.9033 87.7384 68.9033 85.7384 86.2364 85.7384 85.2364 86.7384 85.2364 0 86.2364 1 0 1ZM70.2366 90.7384 62.2366 86.7384 70.2366 82.7384Z" transform="matrix(1 0 0 -1 136 303.738)"/><path d="M136.045 200.867 136.007 161.668 138.007 161.666 138.045 200.865ZM133.008 163.004 137 155 141.008 162.996Z"/><path d="M0-1 59.711-1 59.711 7.36598 57.711 7.36598 57.711 0 58.711 1 0 1ZM62.711 6.03265 58.711 14.0327 54.711 6.03265Z" transform="matrix(1 0 0 -1 60 419.033)"/><path d="M0-1 59.711-1 59.711 7.36598 57.711 7.36598 57.711 0 58.711 1 0 1ZM62.711 6.03265 58.711 14.0327 54.711 6.03265Z" transform="matrix(1 0 0 -1 41 419.033)"/><rect x="70.5001" y="463.5" width="133" height="80" stroke="#FF0000" stroke-width="1.33333" stroke-miterlimit="8" fill="none"/></g></svg>