<svg width="151" height="227" xmlns="http://www.w3.org/2000/svg" xmlns:xlink="http://www.w3.org/1999/xlink" overflow="hidden"><g transform="translate(-363 -402)"><rect x="388" y="521" width="124" height="55" stroke="#000000" stroke-width="2" stroke-miterlimit="8" fill="#FFE2BB"/><text font-family="Times New Roman,Times New Roman_MSFontService,sans-serif" font-weight="400" font-size="19" transform="translate(406.786 544)">Multi</text><text font-family="Times New Roman,Times New Roman_MSFontService,sans-serif" font-weight="400" font-size="19" transform="translate(448.286 544)">-</text><text font-family="Times New Roman,Times New Roman_MSFontService,sans-serif" font-weight="400" font-size="19" transform="translate(454.453 544)">Head</text><text font-family="Times New Roman,Times New Roman_MSFontService,sans-serif" font-weight="400" font-size="19" transform="translate(415.119 566)">Attention</text><rect x="388" y="404" width="124" height="54" stroke="#000000" stroke-width="2" stroke-miterlimit="8" fill="#C2E8F7"/><text font-family="Times New Roman,Times New Roman_MSFontService,sans-serif" font-weight="400" font-size="19" transform="translate(402.703 438)">Feedforward</text><path d="M1-1.65742e-06 1.00009 56.6771-0.999906 56.6771-1 1.65742e-06ZM4.00009 55.3437 0.000104987 63.3437-3.99991 55.3437Z" transform="matrix(1 0 0 -1 450 521.344)"/><rect x="388" y="484" width="124" height="32" stroke="#000000" stroke-width="2" stroke-miterlimit="8" fill="#CCE7CF"/><text font-family="Times New Roman,Times New Roman_MSFontService,sans-serif" font-weight="400" font-size="19" transform="translate(400.619 507)">Add &amp; Norm</text><path d="M0.999982-0.0059481 1.27182 45.6956-0.72814 45.7075-0.999982 0.0059481ZM4.26384 44.3444 0.311496 52.3681-3.73602 44.392Z" transform="matrix(1 0 0 -1 450 628.368)"/><path d="M0-1 39.6758-1 39.6758 19.1774 38.6758 18.1774 46.1858 18.1774 46.1858 20.1774 37.6758 20.1774 37.6758 0 38.6758 1 0 1ZM44.8525 15.1774 52.8525 19.1774 44.8525 23.1774Z" transform="matrix(-1.83697e-16 -1 -1 1.83697e-16 450.177 627.852)"/><path d="M449 627.852 449 588.176 468.898 588.176 467.898 589.176 467.898 581.667 469.898 581.667 469.898 590.176 450 590.176 451 589.176 451 627.852ZM464.898 583 468.898 575 472.898 583Z"/><path d="M449.883 613.158 363 613.158 363 499 381.333 499 381.333 501 364 501 365 500 365 612.158 364 611.158 449.883 611.158ZM380 496 388 500 380 504Z"/></g></svg>