<svg width="336" height="390" xmlns="http://www.w3.org/2000/svg" xmlns:xlink="http://www.w3.org/1999/xlink" overflow="hidden"><g transform="translate(-269 -78)"><rect x="271" y="79" width="332" height="383" stroke="#000000" stroke-width="2" stroke-miterlimit="8" fill="#C2E8F7"/><text font-family="Times New Roman,Times New Roman_MSFontService,sans-serif" font-weight="400" font-size="19" transform="translate(389.083 102)">Feedforward</text><rect x="287" y="175" width="57" height="203" stroke="#000000" stroke-width="2" stroke-miterlimit="8" fill="#BDD7EE"/><path d="M297.5 261.5C297.5 251.007 306.007 242.5 316.5 242.5 326.993 242.5 335.5 251.007 335.5 261.5 335.5 271.993 326.993 280.5 316.5 280.5 306.007 280.5 297.5 271.993 297.5 261.5Z" stroke="#000000" stroke-width="1.33333" stroke-miterlimit="8" fill="#FFFFFF" fill-rule="evenodd"/><path d="M297.5 209.5C297.5 199.007 306.007 190.5 316.5 190.5 326.993 190.5 335.5 199.007 335.5 209.5 335.5 219.993 326.993 228.5 316.5 228.5 306.007 228.5 297.5 219.993 297.5 209.5Z" stroke="#000000" stroke-width="1.33333" stroke-miterlimit="8" fill="#FFFFFF" fill-rule="evenodd"/><path d="M297.5 347.5C297.5 337.007 306.007 328.5 316.5 328.5 326.993 328.5 335.5 337.007 335.5 347.5 335.5 357.993 326.993 366.5 316.5 366.5 306.007 366.5 297.5 357.993 297.5 347.5Z" stroke="#000000" stroke-width="1.33333" stroke-miterlimit="8" fill="#FFFFFF" fill-rule="evenodd"/><text font-family="Cambria Math,Cambria Math_MSFontService,sans-serif" font-weight="400" font-size="24" transform="translate(311.905 313)">⋮</text><rect x="523" y="175" width="58" height="203" stroke="#000000" stroke-width="2" stroke-miterlimit="8" fill="#BDD7EE"/><path d="M533.5 261.5C533.5 251.007 542.007 242.5 552.5 242.5 562.993 242.5 571.5 251.007 571.5 261.5 571.5 271.993 562.993 280.5 552.5 280.5 542.007 280.5 533.5 271.993 533.5 261.5Z" stroke="#000000" stroke-width="1.33333" stroke-miterlimit="8" fill="#FFFFFF" fill-rule="evenodd"/><path d="M533.5 209.5C533.5 199.007 542.007 190.5 552.5 190.5 562.993 190.5 571.5 199.007 571.5 209.5 571.5 219.993 562.993 228.5 552.5 228.5 542.007 228.5 533.5 219.993 533.5 209.5Z" stroke="#000000" stroke-width="1.33333" stroke-miterlimit="8" fill="#FFFFFF" fill-rule="evenodd"/><path d="M533.5 348.5C533.5 338.007 542.007 329.5 552.5 329.5 562.993 329.5 571.5 338.007 571.5 348.5 571.5 358.993 562.993 367.5 552.5 367.5 542.007 367.5 533.5 358.993 533.5 348.5Z" stroke="#000000" stroke-width="1.33333" stroke-miterlimit="8" fill="#FFFFFF" fill-rule="evenodd"/><text font-family="Cambria Math,Cambria Math_MSFontService,sans-serif" font-weight="400" font-size="24" transform="translate(548.158 314)">⋮</text><rect x="406" y="123" width="57" height="305" stroke="#000000" stroke-width="2" stroke-miterlimit="8" fill="#FFE699"/><path d="M416.5 209.5C416.5 199.007 425.007 190.5 435.5 190.5 445.993 190.5 454.5 199.007 454.5 209.5 454.5 219.993 445.993 228.5 435.5 228.5 425.007 228.5 416.5 219.993 416.5 209.5Z" stroke="#000000" stroke-width="1.33333" stroke-miterlimit="8" fill="#FFFFFF" fill-rule="evenodd"/><path d="M416.5 157.5C416.5 147.007 425.007 138.5 435.5 138.5 445.993 138.5 454.5 147.007 454.5 157.5 454.5 167.993 445.993 176.5 435.5 176.5 425.007 176.5 416.5 167.993 416.5 157.5Z" stroke="#000000" stroke-width="1.33333" stroke-miterlimit="8" fill="#FFFFFF" fill-rule="evenodd"/><path d="M416.5 314.5C416.5 304.007 425.007 295.5 435.5 295.5 445.993 295.5 454.5 304.007 454.5 314.5 454.5 324.993 445.993 333.5 435.5 333.5 425.007 333.5 416.5 324.993 416.5 314.5Z" stroke="#000000" stroke-width="1.33333" stroke-miterlimit="8" fill="#FFFFFF" fill-rule="evenodd"/><text font-family="Cambria Math,Cambria Math_MSFontService,sans-serif" font-weight="400" font-size="24" transform="translate(430.56 366)">⋮</text><path d="M415.5 401.5C415.5 391.007 424.007 382.5 434.5 382.5 444.993 382.5 453.5 391.007 453.5 401.5 453.5 411.993 444.993 420.5 434.5 420.5 424.007 420.5 415.5 411.993 415.5 401.5Z" stroke="#000000" stroke-width="1.33333" stroke-miterlimit="8" fill="#FFFFFF" fill-rule="evenodd"/><path d="M416.5 262C416.5 251.783 425.007 243.5 435.5 243.5 445.993 243.5 454.5 251.783 454.5 262 454.5 272.217 445.993 280.5 435.5 280.5 425.007 280.5 416.5 272.217 416.5 262Z" stroke="#000000" stroke-width="1.33333" stroke-miterlimit="8" fill="#FFFFFF" fill-rule="evenodd"/><path d="M0 0 81.6099 51.8085" stroke="#000000" stroke-width="2" stroke-miterlimit="8" fill="none" fill-rule="evenodd" transform="matrix(1 0 0 -1 335 208.809)"/><path d="M335 209 416.61 209.533" stroke="#000000" stroke-width="2" stroke-miterlimit="8" fill="none" fill-rule="evenodd"/><path d="M335 209 416.61 261.874" stroke="#000000" stroke-width="2" stroke-miterlimit="8" fill="none" fill-rule="evenodd"/><path d="M335 209 416.61 314.215" stroke="#000000" stroke-width="2" stroke-miterlimit="8" fill="none" fill-rule="evenodd"/><path d="M335 209 415.86 401.568" stroke="#000000" stroke-width="2" stroke-miterlimit="8" fill="none" fill-rule="evenodd"/><path d="M0 0 81.6099 104.15" stroke="#000000" stroke-width="2" stroke-miterlimit="8" fill="none" fill-rule="evenodd" transform="matrix(1 0 0 -1 335 261.15)"/><path d="M0 0 81.6099 51.8085" stroke="#000000" stroke-width="2" stroke-miterlimit="8" fill="none" fill-rule="evenodd" transform="matrix(1 0 0 -1 335 260.809)"/><path d="M335 261 416.61 261.533" stroke="#000000" stroke-width="2" stroke-miterlimit="8" fill="none" fill-rule="evenodd"/><path d="M335 261 416.61 313.874" stroke="#000000" stroke-width="2" stroke-miterlimit="8" fill="none" fill-rule="evenodd"/><path d="M335 261 415.86 401.227" stroke="#000000" stroke-width="2" stroke-miterlimit="8" fill="none" fill-rule="evenodd"/><path d="M0 0 81.6099 190.088" stroke="#000000" stroke-width="2" stroke-miterlimit="8" fill="none" fill-rule="evenodd" transform="matrix(1 0 0 -1 335 347.088)"/><path d="M0 0 81.6099 137.747" stroke="#000000" stroke-width="2" stroke-miterlimit="8" fill="none" fill-rule="evenodd" transform="matrix(1 0 0 -1 335 346.747)"/><path d="M0 0 81.6099 85.4053" stroke="#000000" stroke-width="2" stroke-miterlimit="8" fill="none" fill-rule="evenodd" transform="matrix(1 0 0 -1 335 347.405)"/><path d="M335 347 415.86 401.289" stroke="#000000" stroke-width="2" stroke-miterlimit="8" fill="none" fill-rule="evenodd"/><path d="M454 157 533.053 208.809" stroke="#000000" stroke-width="2" stroke-miterlimit="8" fill="none" fill-rule="evenodd"/><path d="M454 157 533.053 261.15" stroke="#000000" stroke-width="2" stroke-miterlimit="8" fill="none" fill-rule="evenodd"/><path d="M454 157 533.053 348.288" stroke="#000000" stroke-width="2" stroke-miterlimit="8" fill="none" fill-rule="evenodd"/><path d="M0 0 79.0534 0.532808" stroke="#000000" stroke-width="2" stroke-miterlimit="8" fill="none" fill-rule="evenodd" transform="matrix(1 0 0 -1 454 209.533)"/><path d="M454 209 533.053 260.809" stroke="#000000" stroke-width="2" stroke-miterlimit="8" fill="none" fill-rule="evenodd"/><path d="M454 209 533.053 347.947" stroke="#000000" stroke-width="2" stroke-miterlimit="8" fill="none" fill-rule="evenodd"/><path d="M0 0 79.0534 52.8741" stroke="#000000" stroke-width="2" stroke-miterlimit="8" fill="none" fill-rule="evenodd" transform="matrix(1 0 0 -1 454 261.874)"/><path d="M0 0 79.0534 0.532808" stroke="#000000" stroke-width="2" stroke-miterlimit="8" fill="none" fill-rule="evenodd" transform="matrix(1 0 0 -1 454 261.533)"/><path d="M454 262 533.053 348.605" stroke="#000000" stroke-width="2" stroke-miterlimit="8" fill="none" fill-rule="evenodd"/><path d="M0 0 79.0534 105.748" stroke="#000000" stroke-width="2" stroke-miterlimit="8" fill="none" fill-rule="evenodd" transform="matrix(1 0 0 -1 454 313.748)"/><path d="M0 0 79.0534 52.8741" stroke="#000000" stroke-width="2" stroke-miterlimit="8" fill="none" fill-rule="evenodd" transform="matrix(1 0 0 -1 454 313.874)"/><path d="M454 314 533.053 348.264" stroke="#000000" stroke-width="2" stroke-miterlimit="8" fill="none" fill-rule="evenodd"/><path d="M0 0 79.8033 192.568" stroke="#000000" stroke-width="2" stroke-miterlimit="8" fill="none" fill-rule="evenodd" transform="matrix(1 0 0 -1 453 401.568)"/><path d="M0 0 79.8033 140.227" stroke="#000000" stroke-width="2" stroke-miterlimit="8" fill="none" fill-rule="evenodd" transform="matrix(1 0 0 -1 453 401.227)"/><path d="M0 0 79.8033 53.089" stroke="#000000" stroke-width="2" stroke-miterlimit="8" fill="none" fill-rule="evenodd" transform="matrix(1 0 0 -1 453 401.089)"/><path d="M0 0 81.6099 33.064" stroke="#000000" stroke-width="2" stroke-miterlimit="8" fill="none" fill-rule="evenodd" transform="matrix(1 0 0 -1 335 347.064)"/><text font-family="Calibri,Calibri_MSFontService,sans-serif" font-weight="400" font-size="16" transform="translate(303.478 404)">512</text><text font-family="Calibri,Calibri_MSFontService,sans-serif" font-weight="400" font-size="16" transform="translate(418.05 453)">204</text><text font-family="Calibri,Calibri_MSFontService,sans-serif" font-weight="400" font-size="16" transform="translate(442.55 453)">8</text><text font-family="Calibri,Calibri_MSFontService,sans-serif" font-weight="400" font-size="16" transform="translate(539.989 404)">512</text></g></svg>