<svg width="175" height="204" xmlns="http://www.w3.org/2000/svg" xmlns:xlink="http://www.w3.org/1999/xlink" overflow="hidden"><g transform="translate(-410 -250)"><rect x="436" y="346" width="124" height="54" stroke="#000000" stroke-width="2" stroke-miterlimit="8" fill="#FFE2BB"/><text font-family="Times New Roman,Times New Roman_MSFontService,sans-serif" font-weight="400" font-size="19" transform="translate(454.491 369)">Multi</text><text font-family="Times New Roman,Times New Roman_MSFontService,sans-serif" font-weight="400" font-size="19" transform="translate(495.991 369)">-</text><text font-family="Times New Roman,Times New Roman_MSFontService,sans-serif" font-weight="400" font-size="19" transform="translate(502.158 369)">Head</text><text font-family="Times New Roman,Times New Roman_MSFontService,sans-serif" font-weight="400" font-size="19" transform="translate(462.824 391)">Attention</text><path d="M497.311 345.794 497.033 289.672 499.033 289.662 499.311 345.784ZM494.04 291.02 498 283 502.04 290.98Z"/><rect x="436" y="309" width="124" height="32" stroke="#000000" stroke-width="2" stroke-miterlimit="8" fill="#CCE7CF"/><text font-family="Times New Roman,Times New Roman_MSFontService,sans-serif" font-weight="400" font-size="19" transform="translate(448.324 332)">Add &amp; Norm</text><path d="M0.999982-0.0059481 1.27182 45.6956-0.72814 45.7075-0.999982 0.0059481ZM4.26384 44.3444 0.311496 52.3681-3.73602 44.392Z" transform="matrix(1 0 0 -1 498 452.368)"/><path d="M0-1 39.6758-1 39.6758 19.1774 38.6758 18.1774 46.1858 18.1774 46.1858 20.1774 37.6758 20.1774 37.6758 0 38.6758 1 0 1ZM44.8525 15.1774 52.8525 19.1774 44.8525 23.1774Z" transform="matrix(-1.83697e-16 -1 -1 1.83697e-16 498.177 452.852)"/><path d="M497 452.853 497 413.176 516.898 413.176 515.898 414.176 515.898 406.667 517.898 406.667 517.898 415.176 498 415.176 499 414.176 499 452.853ZM512.898 408 516.898 400 520.898 408Z"/><path d="M497.883 438.158 411 438.158 411 324 429.333 324 429.333 326 412 326 413 325 413 437.158 412 436.158 497.883 436.158ZM428 321 436 325 428 329Z"/><text font-family="Times New Roman,Times New Roman_MSFontService,sans-serif" font-weight="400" font-size="19" transform="translate(426.013 274)">Feedforward Layer</text></g></svg>