<svg width="698" height="522" xmlns="http://www.w3.org/2000/svg" xmlns:xlink="http://www.w3.org/1999/xlink" overflow="hidden"><g transform="translate(-95 -58)"><rect x="137" y="135" width="243" height="443" stroke="#000000" stroke-width="2" stroke-miterlimit="8" fill="#9DC3E6"/><text font-family="Times New Roman,Times New Roman_MSFontService,sans-serif" font-weight="400" font-size="19" transform="translate(163.587 158)">Normal Attention</text><text font-family="Times New Roman,Times New Roman_MSFontService,sans-serif" font-weight="400" font-size="19" transform="translate(300.42 158)">Head</text><text font-family="Times New Roman,Times New Roman_MSFontService,sans-serif" font-weight="400" font-size="19" transform="translate(344.587 158)">1</text><text font-family="Cambria Math,Cambria Math_MSFontService,sans-serif" font-weight="400" font-size="19" transform="translate(103.619 508)">洧</text><text font-family="Cambria Math,Cambria Math_MSFontService,sans-serif" font-weight="400" font-size="19" transform="translate(172.759 445)">洧놎</text><text font-family="Cambria Math,Cambria Math_MSFontService,sans-serif" font-weight="400" font-size="14" transform="translate(185.993 448)">1</text><text font-family="Cambria Math,Cambria Math_MSFontService,sans-serif" font-weight="400" font-size="19" transform="translate(243.832 444)">洧</text><text font-family="Cambria Math,Cambria Math_MSFontService,sans-serif" font-weight="400" font-size="14" transform="translate(257.732 448)">1</text><text font-family="Cambria Math,Cambria Math_MSFontService,sans-serif" font-weight="400" font-size="19" transform="translate(316.07 444)">洧놓</text><text font-family="Cambria Math,Cambria Math_MSFontService,sans-serif" font-weight="400" font-size="14" transform="translate(327.803 448)">1</text><rect x="160" y="257" width="124" height="32" stroke="#000000" stroke-width="2" stroke-miterlimit="8" fill="#CCE7CF"/><text font-family="Times New Roman,Times New Roman_MSFontService,sans-serif" font-weight="400" font-size="19" transform="translate(190.332 279)">Softmax</text><rect x="160" y="313" width="124" height="32" stroke="#000000" stroke-width="2" stroke-miterlimit="8" fill="#FFF2CC"/><text font-family="Times New Roman,Times New Roman_MSFontService,sans-serif" font-weight="400" font-size="19" transform="translate(201.665 336)">Scale</text><rect x="160" y="370" width="124" height="32" stroke="#000000" stroke-width="2" stroke-miterlimit="8" fill="#DAE3F3"/><text font-family="Times New Roman,Times New Roman_MSFontService,sans-serif" font-weight="400" font-size="19" transform="translate(191.249 393)">MatMul</text><rect x="215" y="200" width="124" height="32" stroke="#000000" stroke-width="2" stroke-miterlimit="8" fill="#DAE3F3"/><text font-family="Times New Roman,Times New Roman_MSFontService,sans-serif" font-weight="400" font-size="19" transform="translate(246.711 223)">MatMul</text><path d="M1-4.26561e-06 1.00008 17.9457-0.999923 17.9457-1 4.26561e-06ZM4.00007 16.6124 0.000104987 24.6124-3.99993 16.6124Z" transform="matrix(1 0 0 -1 184 426.612)"/><path d="M1-4.26561e-06 1.00008 17.9457-0.999923 17.9457-1 4.26561e-06ZM4.00007 16.6124 0.000104987 24.6124-3.99993 16.6124Z" transform="matrix(1 0 0 -1 255 425.612)"/><path d="M1-4.26559e-06 1.00008 17.9458-0.999923 17.9458-1 4.26559e-06ZM4.00007 16.6125 0.000104987 24.6125-3.99993 16.6125Z" transform="matrix(1 0 0 -1 222 369.612)"/><path d="M1-4.26559e-06 1.00008 17.9458-0.999923 17.9458-1 4.26559e-06ZM4.00007 16.6125 0.000104987 24.6125-3.99993 16.6125Z" transform="matrix(1 0 0 -1 222 313.612)"/><path d="M1-4.26559e-06 1.00008 17.9458-0.999923 17.9458-1 4.26559e-06ZM4.00007 16.6125 0.000104987 24.6125-3.99993 16.6125Z" transform="matrix(1 0 0 -1 222 256.612)"/><path d="M1-5.39591e-07 1.0001 187.901-0.999899 187.901-1 5.39591e-07ZM4.0001 186.567 0.000104987 194.567-3.9999 186.567Z" transform="matrix(1 0 0 -1 326 425.567)"/><text font-family="Cambria Math,Cambria Math_MSFontService,sans-serif" font-weight="400" font-size="19" transform="translate(419.881 178)">洧누</text><text font-family="Cambria Math,Cambria Math_MSFontService,sans-serif" font-weight="400" font-size="14" transform="translate(431.281 181)">1</text><path d="M276 200.092 276 170 403.924 170 403.924 172 277 172 278 171 278 200.092ZM402.59 167 410.59 171 402.59 175Z"/><rect x="145" y="469" width="222" height="90" stroke="#000000" stroke-width="2" stroke-miterlimit="8" fill="#DAE3F3"/><text font-family="Times New Roman,Times New Roman_MSFontService,sans-serif" font-weight="400" font-size="19" transform="translate(167.616 549)">Linear Transformations</text><path d="M124 500 290.049 500 290.049 502 124 502ZM288.715 497 296.715 501 288.715 505Z"/><rect x="155" y="478" width="58" height="46" stroke="#000000" stroke-width="2" stroke-miterlimit="8" fill="#FBE5D6"/><text font-family="Cambria Math,Cambria Math_MSFontService,sans-serif" font-weight="400" font-size="19" transform="translate(167.156 509)">洧</text><text font-family="Cambria Math,Cambria Math_MSFontService,sans-serif" font-weight="400" font-size="14" transform="translate(185.056 514)">1</text><text font-family="Cambria Math,Cambria Math_MSFontService,sans-serif" font-weight="400" font-size="14" transform="translate(185.489 499)">洧녟</text><rect x="226" y="478" width="59" height="46" stroke="#000000" stroke-width="2" stroke-miterlimit="8" fill="#FFE699"/><text font-family="Cambria Math,Cambria Math_MSFontService,sans-serif" font-weight="400" font-size="19" transform="translate(238.44 508)">洧</text><text font-family="Cambria Math,Cambria Math_MSFontService,sans-serif" font-weight="400" font-size="14" transform="translate(256.34 512)">1</text><text font-family="Cambria Math,Cambria Math_MSFontService,sans-serif" font-weight="400" font-size="14" transform="translate(256.773 500)">洧</text><rect x="297" y="478" width="59" height="46" stroke="#000000" stroke-width="2" stroke-miterlimit="8" fill="#C5E0B4"/><text font-family="Cambria Math,Cambria Math_MSFontService,sans-serif" font-weight="400" font-size="19" transform="translate(309.986 508)">洧</text><text font-family="Cambria Math,Cambria Math_MSFontService,sans-serif" font-weight="400" font-size="14" transform="translate(327.886 512)">1</text><text font-family="Cambria Math,Cambria Math_MSFontService,sans-serif" font-weight="400" font-size="14" transform="translate(328.319 500)">洧녤</text><path d="M183.248 477.953 183.057 455.675 185.057 455.658 185.248 477.936ZM180.069 457.034 184 449 188.068 456.965Z"/><path d="M254.316 478.475 254.072 455.677 256.071 455.656 256.316 478.453ZM251.086 457.042 255 449 259.086 456.957Z"/><path d="M325.204 478.479 325.046 455.673 327.046 455.66 327.204 478.465ZM322.056 457.028 326 449 330.055 456.972Z"/><rect x="481" y="60" width="243" height="518" stroke="#000000" stroke-width="2" stroke-miterlimit="8" fill="#9DC3E6"/><text font-family="Times New Roman,Times New Roman_MSFontService,sans-serif" font-weight="400" font-size="19" transform="translate(505.975 83)">Masked Attention</text><text font-family="Times New Roman,Times New Roman_MSFontService,sans-serif" font-weight="400" font-size="19" transform="translate(645.142 83)">Head</text><text font-family="Times New Roman,Times New Roman_MSFontService,sans-serif" font-weight="400" font-size="19" transform="translate(689.308 83)">1</text><text font-family="Cambria Math,Cambria Math_MSFontService,sans-serif" font-weight="400" font-size="19" transform="translate(447.76 508)">洧</text><text font-family="Cambria Math,Cambria Math_MSFontService,sans-serif" font-weight="400" font-size="19" transform="translate(516.314 445)">洧놎</text><text font-family="Cambria Math,Cambria Math_MSFontService,sans-serif" font-weight="400" font-size="14" transform="translate(529.548 448)">1</text><text font-family="Cambria Math,Cambria Math_MSFontService,sans-serif" font-weight="400" font-size="19" transform="translate(587.387 444)">洧</text><text font-family="Cambria Math,Cambria Math_MSFontService,sans-serif" font-weight="400" font-size="14" transform="translate(601.287 448)">1</text><text font-family="Cambria Math,Cambria Math_MSFontService,sans-serif" font-weight="400" font-size="19" transform="translate(659.625 444)">洧놓</text><text font-family="Cambria Math,Cambria Math_MSFontService,sans-serif" font-weight="400" font-size="14" transform="translate(671.358 448)">1</text><rect x="504" y="200" width="123" height="32" stroke="#000000" stroke-width="2" stroke-miterlimit="8" fill="#CCE7CF"/><text font-family="Times New Roman,Times New Roman_MSFontService,sans-serif" font-weight="400" font-size="19" transform="translate(533.887 223)">Softmax</text><rect x="504" y="313" width="123" height="32" stroke="#000000" stroke-width="2" stroke-miterlimit="8" fill="#FFF2CC"/><text font-family="Times New Roman,Times New Roman_MSFontService,sans-serif" font-weight="400" font-size="19" transform="translate(545.22 336)">Scale</text><rect x="504" y="370" width="123" height="32" stroke="#000000" stroke-width="2" stroke-miterlimit="8" fill="#DAE3F3"/><text font-family="Times New Roman,Times New Roman_MSFontService,sans-serif" font-weight="400" font-size="19" transform="translate(534.804 393)">MatMul</text><rect x="559" y="143" width="124" height="32" stroke="#000000" stroke-width="2" stroke-miterlimit="8" fill="#DAE3F3"/><text font-family="Times New Roman,Times New Roman_MSFontService,sans-serif" font-weight="400" font-size="19" transform="translate(590.266 166)">MatMul</text><path d="M1-4.26561e-06 1.00008 17.9457-0.999923 17.9457-1 4.26561e-06ZM4.00007 16.6124 0.000104987 24.6124-3.99993 16.6124Z" transform="matrix(1 0 0 -1 527 426.612)"/><path d="M1-4.26561e-06 1.00008 17.9457-0.999923 17.9457-1 4.26561e-06ZM4.00007 16.6124 0.000104987 24.6124-3.99993 16.6124Z" transform="matrix(1 0 0 -1 599 425.612)"/><path d="M1-4.26559e-06 1.00008 17.9458-0.999923 17.9458-1 4.26559e-06ZM4.00007 16.6125 0.000104987 24.6125-3.99993 16.6125Z" transform="matrix(1 0 0 -1 565 369.612)"/><path d="M1-4.26559e-06 1.00008 17.9458-0.999923 17.9458-1 4.26559e-06ZM4.00007 16.6125 0.000104987 24.6125-3.99993 16.6125Z" transform="matrix(1 0 0 -1 565 313.612)"/><path d="M1-4.26559e-06 1.00008 17.9458-0.999923 17.9458-1 4.26559e-06ZM4.00007 16.6125 0.000104987 24.6125-3.99993 16.6125Z" transform="matrix(1 0 0 -1 565 199.612)"/><path d="M1-4.18632e-07 1.0001 244.119-0.999898 244.119-1 4.18632e-07ZM4.0001 242.786 0.000104987 250.786-3.9999 242.786Z" transform="matrix(1 0 0 -1 670 425.786)"/><text font-family="Cambria Math,Cambria Math_MSFontService,sans-serif" font-weight="400" font-size="19" transform="translate(763.436 121)">洧누</text><text font-family="Cambria Math,Cambria Math_MSFontService,sans-serif" font-weight="400" font-size="14" transform="translate(774.836 125)">1</text><path d="M620 143.092 620 113 747.924 113 747.924 115 621 115 622 114 622 143.092ZM746.59 110 754.59 114 746.59 118Z"/><rect x="489" y="469" width="222" height="90" stroke="#000000" stroke-width="2" stroke-miterlimit="8" fill="#DAE3F3"/><text font-family="Times New Roman,Times New Roman_MSFontService,sans-serif" font-weight="400" font-size="19" transform="translate(511.171 549)">Linear Transformations</text><path d="M468 500 634.049 500 634.049 502 468 502ZM632.715 497 640.715 501 632.715 505Z"/><rect x="498" y="478" width="59" height="46" stroke="#000000" stroke-width="2" stroke-miterlimit="8" fill="#FBE5D6"/><text font-family="Cambria Math,Cambria Math_MSFontService,sans-serif" font-weight="400" font-size="19" transform="translate(510.711 509)">洧</text><text font-family="Cambria Math,Cambria Math_MSFontService,sans-serif" font-weight="400" font-size="14" transform="translate(528.611 514)">1</text><text font-family="Cambria Math,Cambria Math_MSFontService,sans-serif" font-weight="400" font-size="14" transform="translate(529.044 499)">洧녟</text><rect x="570" y="478" width="58" height="46" stroke="#000000" stroke-width="2" stroke-miterlimit="8" fill="#FFE699"/><text font-family="Cambria Math,Cambria Math_MSFontService,sans-serif" font-weight="400" font-size="19" transform="translate(581.995 508)">洧</text><text font-family="Cambria Math,Cambria Math_MSFontService,sans-serif" font-weight="400" font-size="14" transform="translate(599.895 512)">1</text><text font-family="Cambria Math,Cambria Math_MSFontService,sans-serif" font-weight="400" font-size="14" transform="translate(600.328 500)">洧</text><rect x="641" y="478" width="58" height="46" stroke="#000000" stroke-width="2" stroke-miterlimit="8" fill="#C5E0B4"/><text font-family="Cambria Math,Cambria Math_MSFontService,sans-serif" font-weight="400" font-size="19" transform="translate(653.541 508)">洧</text><text font-family="Cambria Math,Cambria Math_MSFontService,sans-serif" font-weight="400" font-size="14" transform="translate(671.441 512)">1</text><text font-family="Cambria Math,Cambria Math_MSFontService,sans-serif" font-weight="400" font-size="14" transform="translate(671.874 500)">洧녤</text><path d="M526.248 477.953 526.057 455.675 528.057 455.658 528.248 477.936ZM523.069 457.034 527 449 531.068 456.965Z"/><path d="M598.316 478.475 598.072 455.677 600.071 455.656 600.316 478.453ZM595.086 457.042 599 449 603.086 456.957Z"/><path d="M669.204 478.479 669.046 455.673 671.046 455.66 671.204 478.465ZM666.056 457.028 670 449 674.055 456.972Z"/><rect x="504" y="256" width="123" height="32" stroke="#000000" stroke-width="2" stroke-miterlimit="8" fill="#FFBBBB"/><text font-family="Times New Roman,Times New Roman_MSFontService,sans-serif" font-weight="400" font-size="19" transform="translate(544.637 279)">Mask</text><path d="M1-4.30778e-06 1.00008 17.7048-0.999924 17.7048-1 4.30778e-06ZM4.00007 16.3714 0.000104987 24.3714-3.99993 16.3715Z" transform="matrix(1 0 0 -1 565 256.371)"/></g></svg>