<svg width="235" height="175" xmlns="http://www.w3.org/2000/svg" xmlns:xlink="http://www.w3.org/1999/xlink" overflow="hidden"><g transform="translate(-404 -200)"><rect x="521" y="270" width="116" height="45" stroke="#000000" stroke-width="2" stroke-miterlimit="8" fill="#FCE0E1"/><text font-family="Times New Roman,Times New Roman_MSFontService,sans-serif" font-weight="400" font-size="19" transform="translate(559.49 288)">Input</text><text font-family="Times New Roman,Times New Roman_MSFontService,sans-serif" font-weight="400" font-size="19" transform="translate(536.157 310)">Embedding</text><path d="M565.5 234C565.5 225.992 571.992 219.5 580 219.5 588.008 219.5 594.5 225.992 594.5 234 594.5 242.008 588.008 248.5 580 248.5 571.992 248.5 565.5 242.008 565.5 234Z" stroke="#000000" stroke-width="1.33333" stroke-miterlimit="8" fill="#FFFFFF" fill-rule="evenodd"/><text font-family="Calibri,Calibri_MSFontService,sans-serif" font-weight="400" font-size="24" transform="translate(573.425 240)">+</text><path d="M502.5 234.5C502.5 226.768 508.768 220.5 516.5 220.5 524.232 220.5 530.5 226.768 530.5 234.5 530.5 242.232 524.232 248.5 516.5 248.5 508.768 248.5 502.5 242.232 502.5 234.5Z" stroke="#000000" stroke-width="1.33333" stroke-miterlimit="8" fill="#FFFFFF" fill-rule="evenodd"/><path d="M502.5 233.907C505.432 231.342 508.363 228.777 511.594 229.687 514.825 230.598 518.734 238.583 521.885 239.369 525.036 240.155 527.768 237.279 530.5 234.404" stroke="#000000" stroke-width="1.33333" stroke-miterlimit="8" fill="none" fill-rule="evenodd"/><path d="M0 0 35.2039 0.525039" stroke="#000000" stroke-width="2" stroke-miterlimit="8" fill="none" fill-rule="evenodd" transform="matrix(1 0 0 -1 530 234.525)"/><text font-family="Times New Roman,Times New Roman_MSFontService,sans-serif" font-weight="400" font-size="19" transform="translate(416.739 224)">Positional</text><text font-family="Times New Roman,Times New Roman_MSFontService,sans-serif" font-weight="400" font-size="19" transform="translate(418.325 246)">Encoding</text><path d="M0.999927-0.012042 1.1881 15.6131-0.811756 15.6372-0.999927 0.012042ZM4.17183 14.2437 0.268451 22.2913-3.82759 14.3401Z" transform="matrix(1 0 0 -1 579 270.291)"/><text font-family="Times New Roman,Times New Roman_MSFontService,sans-serif" font-weight="400" font-size="19" transform="translate(555.823 359)">Inputs</text><path d="M1-4.02646e-06 1.00008 19.4076-0.999922 19.4076-1 4.02646e-06ZM4.00007 18.0742 0.000104987 26.0742-3.99993 18.0742Z" transform="matrix(1 0 0 -1 579 341.074)"/></g></svg>