<svg width="354" height="447" xmlns="http://www.w3.org/2000/svg" xmlns:xlink="http://www.w3.org/1999/xlink" overflow="hidden"><g transform="translate(-292 -116)"><rect x="334" y="118" width="243" height="443" stroke="#000000" stroke-width="2" stroke-miterlimit="8" fill="#9DC3E6"/><text font-family="Times New Roman,Times New Roman_MSFontService,sans-serif" font-weight="400" font-size="19" transform="translate(428.754 141)">Head 1</text><text font-family="Cambria Math,Cambria Math_MSFontService,sans-serif" font-weight="400" font-size="19" transform="translate(300.37 491)">ğ‘¿</text><text font-family="Cambria Math,Cambria Math_MSFontService,sans-serif" font-weight="400" font-size="19" transform="translate(369.511 428)">ğ‘¸</text><text font-family="Cambria Math,Cambria Math_MSFontService,sans-serif" font-weight="400" font-size="14" transform="translate(382.744 431)">1</text><text font-family="Cambria Math,Cambria Math_MSFontService,sans-serif" font-weight="400" font-size="19" transform="translate(440.583 427)">ğ‘²</text><text font-family="Cambria Math,Cambria Math_MSFontService,sans-serif" font-weight="400" font-size="14" transform="translate(454.483 431)">1</text><text font-family="Cambria Math,Cambria Math_MSFontService,sans-serif" font-weight="400" font-size="19" transform="translate(512.821 427)">ğ‘½</text><text font-family="Cambria Math,Cambria Math_MSFontService,sans-serif" font-weight="400" font-size="14" transform="translate(524.554 431)">1</text><rect x="357" y="240" width="124" height="32" stroke="#000000" stroke-width="2" stroke-miterlimit="8" fill="#CCE7CF"/><text font-family="Times New Roman,Times New Roman_MSFontService,sans-serif" font-weight="400" font-size="19" transform="translate(387.083 262)">Softmax</text><rect x="357" y="296" width="124" height="32" stroke="#000000" stroke-width="2" stroke-miterlimit="8" fill="#FFF2CC"/><text font-family="Times New Roman,Times New Roman_MSFontService,sans-serif" font-weight="400" font-size="19" transform="translate(398.416 319)">Scale</text><rect x="357" y="353" width="124" height="32" stroke="#000000" stroke-width="2" stroke-miterlimit="8" fill="#DAE3F3"/><text font-family="Times New Roman,Times New Roman_MSFontService,sans-serif" font-weight="400" font-size="19" transform="translate(388 376)">MatMu</text><text font-family="Times New Roman,Times New Roman_MSFontService,sans-serif" font-weight="400" font-size="19" transform="translate(444.166 376)">l</text><rect x="412" y="183" width="124" height="32" stroke="#000000" stroke-width="2" stroke-miterlimit="8" fill="#DAE3F3"/><text font-family="Times New Roman,Times New Roman_MSFontService,sans-serif" font-weight="400" font-size="19" transform="translate(443.462 206)">MatMu</text><text font-family="Times New Roman,Times New Roman_MSFontService,sans-serif" font-weight="400" font-size="19" transform="translate(499.628 206)">l</text><path d="M1-4.26561e-06 1.00008 17.9457-0.999923 17.9457-1 4.26561e-06ZM4.00007 16.6124 0.000104987 24.6124-3.99993 16.6124Z" transform="matrix(1 0 0 -1 380 409.612)"/><path d="M1-4.26561e-06 1.00008 17.9457-0.999923 17.9457-1 4.26561e-06ZM4.00007 16.6124 0.000104987 24.6124-3.99993 16.6124Z" transform="matrix(1 0 0 -1 452 408.612)"/><path d="M1-4.26559e-06 1.00008 17.9458-0.999923 17.9458-1 4.26559e-06ZM4.00007 16.6125 0.000104987 24.6125-3.99993 16.6125Z" transform="matrix(1 0 0 -1 419 352.612)"/><path d="M1-4.26559e-06 1.00008 17.9458-0.999923 17.9458-1 4.26559e-06ZM4.00007 16.6125 0.000104987 24.6125-3.99993 16.6125Z" transform="matrix(1 0 0 -1 419 296.612)"/><path d="M1-4.26559e-06 1.00008 17.9458-0.999923 17.9458-1 4.26559e-06ZM4.00007 16.6125 0.000104987 24.6125-3.99993 16.6125Z" transform="matrix(1 0 0 -1 419 239.612)"/><path d="M1-5.39591e-07 1.0001 187.901-0.999899 187.901-1 5.39591e-07ZM4.0001 186.567 0.000104987 194.567-3.9999 186.567Z" transform="matrix(1 0 0 -1 523 408.567)"/><text font-family="Cambria Math,Cambria Math_MSFontService,sans-serif" font-weight="400" font-size="19" transform="translate(616.632 161)">ğ’</text><text font-family="Cambria Math,Cambria Math_MSFontService,sans-serif" font-weight="400" font-size="14" transform="translate(628.032 164)">1</text><path d="M473 183.092 473 153 600.924 153 600.924 155 474 155 475 154 475 183.092ZM599.59 150 607.59 154 599.59 158Z"/><rect x="342" y="452" width="222" height="90" stroke="#000000" stroke-width="2" stroke-miterlimit="8" fill="#DAE3F3"/><text font-family="Times New Roman,Times New Roman_MSFontService,sans-serif" font-weight="400" font-size="19" transform="translate(364.367 532)">Linear Transformations</text><path d="M321 483 487.049 483 487.049 485 321 485ZM485.715 480 493.715 484 485.715 488Z"/><rect x="351" y="461" width="59" height="46" stroke="#000000" stroke-width="2" stroke-miterlimit="8" fill="#FBE5D6"/><text font-family="Cambria Math,Cambria Math_MSFontService,sans-serif" font-weight="400" font-size="19" transform="translate(363.907 492)">ğ‘¾</text><text font-family="Cambria Math,Cambria Math_MSFontService,sans-serif" font-weight="400" font-size="14" transform="translate(381.807 497)">1</text><text font-family="Cambria Math,Cambria Math_MSFontService,sans-serif" font-weight="400" font-size="14" transform="translate(382.24 482)">ğ‘„</text><rect x="423" y="461" width="59" height="46" stroke="#000000" stroke-width="2" stroke-miterlimit="8" fill="#FFE699"/><text font-family="Cambria Math,Cambria Math_MSFontService,sans-serif" font-weight="400" font-size="19" transform="translate(435.191 491)">ğ‘¾</text><text font-family="Cambria Math,Cambria Math_MSFontService,sans-serif" font-weight="400" font-size="14" transform="translate(453.091 495)">1</text><text font-family="Cambria Math,Cambria Math_MSFontService,sans-serif" font-weight="400" font-size="14" transform="translate(453.524 483)">ğ¾</text><rect x="494" y="461" width="59" height="46" stroke="#000000" stroke-width="2" stroke-miterlimit="8" fill="#C5E0B4"/><text font-family="Cambria Math,Cambria Math_MSFontService,sans-serif" font-weight="400" font-size="19" transform="translate(506.737 490)">ğ‘¾</text><text font-family="Cambria Math,Cambria Math_MSFontService,sans-serif" font-weight="400" font-size="14" transform="translate(524.637 495)">1</text><text font-family="Cambria Math,Cambria Math_MSFontService,sans-serif" font-weight="400" font-size="14" transform="translate(525.07 483)">ğ‘‰</text><path d="M379.248 460.953 379.057 438.675 381.057 438.658 381.248 460.936ZM376.069 440.034 380 432 384.068 439.965Z"/><path d="M451.316 461.475 451.072 438.677 453.071 438.656 453.316 461.453ZM448.086 440.042 452 432 456.086 439.957Z"/><path d="M522.204 461.479 522.046 438.673 524.046 438.66 524.204 461.465ZM519.056 440.028 523 432 527.055 439.972Z"/></g></svg>