<svg width="1042" height="522" xmlns="http://www.w3.org/2000/svg" xmlns:xlink="http://www.w3.org/1999/xlink" overflow="hidden"><g transform="translate(84 -88)"><rect x="-42" y="165" width="243" height="443" stroke="#000000" stroke-width="2" stroke-miterlimit="8" fill="#9DC3E6"/><text font-family="Times New Roman,Times New Roman_MSFontService,sans-serif" font-weight="400" font-size="19" transform="translate(-4.93701 187)">Encoder</text><text font-family="Times New Roman,Times New Roman_MSFontService,sans-serif" font-weight="400" font-size="19" transform="translate(61.8963 187)">Self</text><text font-family="Times New Roman,Times New Roman_MSFontService,sans-serif" font-weight="400" font-size="19" transform="translate(91.8963 187)">-</text><text font-family="Times New Roman,Times New Roman_MSFontService,sans-serif" font-weight="400" font-size="19" transform="translate(98.063 187)">attention</text><text font-family="Cambria Math,Cambria Math_MSFontService,sans-serif" font-weight="400" font-size="19" transform="translate(-75.9049 537)">洧</text><text font-family="Cambria Math,Cambria Math_MSFontService,sans-serif" font-weight="400" font-size="19" transform="translate(-6.7642 474)">洧놎</text><text font-family="Cambria Math,Cambria Math_MSFontService,sans-serif" font-weight="400" font-size="14" transform="translate(6.46913 478)">1</text><text font-family="Cambria Math,Cambria Math_MSFontService,sans-serif" font-weight="400" font-size="19" transform="translate(64.3083 474)">洧</text><text font-family="Cambria Math,Cambria Math_MSFontService,sans-serif" font-weight="400" font-size="14" transform="translate(78.2083 478)">1</text><text font-family="Cambria Math,Cambria Math_MSFontService,sans-serif" font-weight="400" font-size="19" transform="translate(136.546 474)">洧놓</text><text font-family="Cambria Math,Cambria Math_MSFontService,sans-serif" font-weight="400" font-size="14" transform="translate(148.28 478)">1</text><rect x="-20" y="286" width="124" height="32" stroke="#000000" stroke-width="2" stroke-miterlimit="8" fill="#CCE7CF"/><text font-family="Times New Roman,Times New Roman_MSFontService,sans-serif" font-weight="400" font-size="19" transform="translate(10.8082 309)">Softmax</text><rect x="-20" y="343" width="124" height="32" stroke="#000000" stroke-width="2" stroke-miterlimit="8" fill="#FFF2CC"/><text font-family="Times New Roman,Times New Roman_MSFontService,sans-serif" font-weight="400" font-size="19" transform="translate(22.1416 366)">Scale</text><rect x="-20" y="400" width="124" height="32" stroke="#000000" stroke-width="2" stroke-miterlimit="8" fill="#DAE3F3"/><text font-family="Times New Roman,Times New Roman_MSFontService,sans-serif" font-weight="400" font-size="19" transform="translate(11.7249 422)">MatMul</text><rect x="36" y="230" width="124" height="32" stroke="#000000" stroke-width="2" stroke-miterlimit="8" fill="#DAE3F3"/><text font-family="Times New Roman,Times New Roman_MSFontService,sans-serif" font-weight="400" font-size="19" transform="translate(67.1869 252)">MatMul</text><path d="M1-4.26561e-06 1.00008 17.9457-0.999923 17.9457-1 4.26561e-06ZM4.00007 16.6124 0.000104987 24.6124-3.99993 16.6124Z" transform="matrix(1 0 0 -1 4 456.612)"/><path d="M1-4.26561e-06 1.00008 17.9457-0.999923 17.9457-1 4.26561e-06ZM4.00007 16.6124 0.000104987 24.6124-3.99993 16.6124Z" transform="matrix(1 0 0 -1 76 455.612)"/><path d="M1-4.26559e-06 1.00008 17.9458-0.999923 17.9458-1 4.26559e-06ZM4.00007 16.6125 0.000104987 24.6125-3.99993 16.6125Z" transform="matrix(1 0 0 -1 42 399.612)"/><path d="M1-4.26559e-06 1.00008 17.9458-0.999923 17.9458-1 4.26559e-06ZM4.00007 16.6125 0.000104987 24.6125-3.99993 16.6125Z" transform="matrix(1 0 0 -1 42 342.612)"/><path d="M1-4.26559e-06 1.00008 17.9458-0.999923 17.9458-1 4.26559e-06ZM4.00007 16.6125 0.000104987 24.6125-3.99993 16.6125Z" transform="matrix(1 0 0 -1 42 286.612)"/><path d="M1-5.39591e-07 1.0001 187.901-0.999899 187.901-1 5.39591e-07ZM4.0001 186.567 0.000104987 194.567-3.9999 186.567Z" transform="matrix(1 0 0 -1 147 455.567)"/><text font-family="Cambria Math,Cambria Math_MSFontService,sans-serif" font-weight="400" font-size="19" transform="translate(240.357 207)">洧누</text><text font-family="Cambria Math,Cambria Math_MSFontService,sans-serif" font-weight="400" font-size="14" transform="translate(251.757 211)">1</text><path d="M96.9999 230.092 96.9999 200 224.924 200 224.924 202 97.9999 202 98.9999 201 98.9999 230.092ZM223.59 197 231.59 201 223.59 205Z"/><rect x="-35" y="499" width="222" height="89" stroke="#000000" stroke-width="2" stroke-miterlimit="8" fill="#DAE3F3"/><text font-family="Times New Roman,Times New Roman_MSFontService,sans-serif" font-weight="400" font-size="19" transform="translate(-11.908 579)">Linear Transformations</text><path d="M-55 530 111.049 530 111.049 532-55 532ZM109.715 527 117.715 531 109.715 535Z"/><rect x="-25" y="508" width="59" height="45" stroke="#000000" stroke-width="2" stroke-miterlimit="8" fill="#FBE5D6"/><text font-family="Cambria Math,Cambria Math_MSFontService,sans-serif" font-weight="400" font-size="19" transform="translate(-12.3681 538)">洧</text><text font-family="Cambria Math,Cambria Math_MSFontService,sans-serif" font-weight="400" font-size="14" transform="translate(5.53192 544)">1</text><text font-family="Cambria Math,Cambria Math_MSFontService,sans-serif" font-weight="400" font-size="14" transform="translate(5.96525 529)">洧녟</text><rect x="47" y="508" width="58" height="45" stroke="#000000" stroke-width="2" stroke-miterlimit="8" fill="#FFE699"/><text font-family="Cambria Math,Cambria Math_MSFontService,sans-serif" font-weight="400" font-size="19" transform="translate(58.9161 537)">洧</text><text font-family="Cambria Math,Cambria Math_MSFontService,sans-serif" font-weight="400" font-size="14" transform="translate(76.8161 541)">1</text><text font-family="Cambria Math,Cambria Math_MSFontService,sans-serif" font-weight="400" font-size="14" transform="translate(77.2494 530)">洧</text><rect x="118" y="508" width="58" height="45" stroke="#000000" stroke-width="2" stroke-miterlimit="8" fill="#C5E0B4"/><text font-family="Cambria Math,Cambria Math_MSFontService,sans-serif" font-weight="400" font-size="19" transform="translate(130.462 537)">洧</text><text font-family="Cambria Math,Cambria Math_MSFontService,sans-serif" font-weight="400" font-size="14" transform="translate(148.362 541)">1</text><text font-family="Cambria Math,Cambria Math_MSFontService,sans-serif" font-weight="400" font-size="14" transform="translate(148.796 530)">洧녤</text><path d="M3.24791 507.953 3.05713 485.675 5.05705 485.658 5.24784 507.936ZM0.068655 487.034 4 479 8.06836 486.965Z"/><path d="M75.3162 507.475 75.0716 484.677 77.0715 484.656 77.3161 507.453ZM72.0861 486.042 76 478 80.0856 485.957Z"/><path d="M146.204 507.479 146.046 484.673 148.046 484.66 148.204 507.465ZM143.056 486.028 147 478 151.055 485.972Z"/><rect x="301" y="90" width="243" height="518" stroke="#000000" stroke-width="2" stroke-miterlimit="8" fill="#9DC3E6"/><text font-family="Times New Roman,Times New Roman_MSFontService,sans-serif" font-weight="400" font-size="19" transform="translate(338.035 113)">Decoder</text><text font-family="Times New Roman,Times New Roman_MSFontService,sans-serif" font-weight="400" font-size="19" transform="translate(406.035 113)">Self</text><text font-family="Times New Roman,Times New Roman_MSFontService,sans-serif" font-weight="400" font-size="19" transform="translate(436.035 113)">-</text><text font-family="Times New Roman,Times New Roman_MSFontService,sans-serif" font-weight="400" font-size="19" transform="translate(442.201 113)">a</text><text font-family="Times New Roman,Times New Roman_MSFontService,sans-serif" font-weight="400" font-size="19" transform="translate(450.535 113)">ttention</text><text font-family="Cambria Math,Cambria Math_MSFontService,sans-serif" font-weight="400" font-size="19" transform="translate(268.237 537)">洧</text><text font-family="Cambria Math,Cambria Math_MSFontService,sans-serif" font-weight="400" font-size="19" transform="translate(336.791 474)">洧놎</text><text font-family="Cambria Math,Cambria Math_MSFontService,sans-serif" font-weight="400" font-size="14" transform="translate(350.024 478)">1</text><text font-family="Cambria Math,Cambria Math_MSFontService,sans-serif" font-weight="400" font-size="19" transform="translate(407.863 474)">洧</text><text font-family="Cambria Math,Cambria Math_MSFontService,sans-serif" font-weight="400" font-size="14" transform="translate(421.763 478)">1</text><text font-family="Cambria Math,Cambria Math_MSFontService,sans-serif" font-weight="400" font-size="19" transform="translate(480.101 474)">洧놓</text><text font-family="Cambria Math,Cambria Math_MSFontService,sans-serif" font-weight="400" font-size="14" transform="translate(491.835 478)">1</text><rect x="324" y="230" width="124" height="32" stroke="#000000" stroke-width="2" stroke-miterlimit="8" fill="#CCE7CF"/><text font-family="Times New Roman,Times New Roman_MSFontService,sans-serif" font-weight="400" font-size="19" transform="translate(354.363 252)">Softmax</text><rect x="324" y="343" width="124" height="32" stroke="#000000" stroke-width="2" stroke-miterlimit="8" fill="#FFF2CC"/><text font-family="Times New Roman,Times New Roman_MSFontService,sans-serif" font-weight="400" font-size="19" transform="translate(365.697 366)">Scale</text><rect x="324" y="400" width="124" height="32" stroke="#000000" stroke-width="2" stroke-miterlimit="8" fill="#DAE3F3"/><text font-family="Times New Roman,Times New Roman_MSFontService,sans-serif" font-weight="400" font-size="19" transform="translate(355.28 422)">MatMul</text><rect x="379" y="173" width="124" height="32" stroke="#000000" stroke-width="2" stroke-miterlimit="8" fill="#DAE3F3"/><text font-family="Times New Roman,Times New Roman_MSFontService,sans-serif" font-weight="400" font-size="19" transform="translate(410.742 196)">MatMul</text><path d="M1-4.26561e-06 1.00008 17.9457-0.999923 17.9457-1 4.26561e-06ZM4.00007 16.6124 0.000104987 24.6124-3.99993 16.6124Z" transform="matrix(1 0 0 -1 348 456.612)"/><path d="M1-4.26561e-06 1.00008 17.9457-0.999923 17.9457-1 4.26561e-06ZM4.00007 16.6124 0.000104987 24.6124-3.99993 16.6124Z" transform="matrix(1 0 0 -1 419 455.612)"/><path d="M1-4.26559e-06 1.00008 17.9458-0.999923 17.9458-1 4.26559e-06ZM4.00007 16.6125 0.000104987 24.6125-3.99993 16.6125Z" transform="matrix(1 0 0 -1 386 399.612)"/><path d="M1-4.26559e-06 1.00008 17.9458-0.999923 17.9458-1 4.26559e-06ZM4.00007 16.6125 0.000104987 24.6125-3.99993 16.6125Z" transform="matrix(1 0 0 -1 386 342.612)"/><path d="M1-4.26559e-06 1.00008 17.9458-0.999923 17.9458-1 4.26559e-06ZM4.00007 16.6125 0.000104987 24.6125-3.99993 16.6125Z" transform="matrix(1 0 0 -1 386 229.612)"/><path d="M1-4.18632e-07 1.0001 244.119-0.999898 244.119-1 4.18632e-07ZM4.0001 242.786 0.000104987 250.786-3.9999 242.786Z" transform="matrix(1 0 0 -1 490 455.786)"/><text font-family="Cambria Math,Cambria Math_MSFontService,sans-serif" font-weight="400" font-size="19" transform="translate(583.912 151)">洧누</text><text font-family="Cambria Math,Cambria Math_MSFontService,sans-serif" font-weight="400" font-size="14" transform="translate(595.312 154)">1</text><path d="M440 173.092 440 143 567.924 143 567.924 145 441 145 442 144 442 173.092ZM566.59 140 574.59 144 566.59 148Z"/><rect x="309" y="499" width="222" height="89" stroke="#000000" stroke-width="2" stroke-miterlimit="8" fill="#DAE3F3"/><text font-family="Times New Roman,Times New Roman_MSFontService,sans-serif" font-weight="400" font-size="19" transform="translate(331.647 579)">Linear Transformations</text><path d="M288 530 454.049 530 454.049 532 288 532ZM452.715 527 460.715 531 452.715 535Z"/><rect x="319" y="508" width="58" height="45" stroke="#000000" stroke-width="2" stroke-miterlimit="8" fill="#FBE5D6"/><text font-family="Cambria Math,Cambria Math_MSFontService,sans-serif" font-weight="400" font-size="19" transform="translate(331.187 538)">洧</text><text font-family="Cambria Math,Cambria Math_MSFontService,sans-serif" font-weight="400" font-size="14" transform="translate(349.087 544)">1</text><text font-family="Cambria Math,Cambria Math_MSFontService,sans-serif" font-weight="400" font-size="14" transform="translate(349.52 529)">洧녟</text><rect x="390" y="508" width="59" height="45" stroke="#000000" stroke-width="2" stroke-miterlimit="8" fill="#FFE699"/><text font-family="Cambria Math,Cambria Math_MSFontService,sans-serif" font-weight="400" font-size="19" transform="translate(402.471 537)">洧</text><text font-family="Cambria Math,Cambria Math_MSFontService,sans-serif" font-weight="400" font-size="14" transform="translate(420.371 541)">1</text><text font-family="Cambria Math,Cambria Math_MSFontService,sans-serif" font-weight="400" font-size="14" transform="translate(420.804 530)">洧</text><rect x="461" y="508" width="59" height="45" stroke="#000000" stroke-width="2" stroke-miterlimit="8" fill="#C5E0B4"/><text font-family="Cambria Math,Cambria Math_MSFontService,sans-serif" font-weight="400" font-size="19" transform="translate(474.017 537)">洧</text><text font-family="Cambria Math,Cambria Math_MSFontService,sans-serif" font-weight="400" font-size="14" transform="translate(491.917 541)">1</text><text font-family="Cambria Math,Cambria Math_MSFontService,sans-serif" font-weight="400" font-size="14" transform="translate(492.351 530)">洧녤</text><path d="M347.248 507.953 347.057 485.675 349.057 485.658 349.248 507.936ZM344.069 487.034 348 479 352.068 486.965Z"/><path d="M418.316 507.475 418.072 484.677 420.071 484.656 420.316 507.453ZM415.086 486.042 419 478 423.086 485.957Z"/><path d="M489.204 507.479 489.046 484.673 491.046 484.66 491.204 507.465ZM486.056 486.028 490 478 494.055 485.972Z"/><rect x="324" y="286" width="124" height="32" stroke="#000000" stroke-width="2" stroke-miterlimit="8" fill="#FFBBBB"/><text font-family="Times New Roman,Times New Roman_MSFontService,sans-serif" font-weight="400" font-size="19" transform="translate(365.113 309)">Mask</text><path d="M1-4.30778e-06 1.00008 17.7048-0.999924 17.7048-1 4.30778e-06ZM4.00007 16.3714 0.000104987 24.3714-3.99993 16.3715Z" transform="matrix(1 0 0 -1 386 286.371)"/><rect x="648" y="164" width="243" height="443" stroke="#000000" stroke-width="2" stroke-miterlimit="8" fill="#9DC3E6"/><text font-family="Times New Roman,Times New Roman_MSFontService,sans-serif" font-weight="400" font-size="19" transform="translate(678.459 187)">Decoder Cross</text><text font-family="Times New Roman,Times New Roman_MSFontService,sans-serif" font-weight="400" font-size="19" transform="translate(789.125 187)">-</text><text font-family="Times New Roman,Times New Roman_MSFontService,sans-serif" font-weight="400" font-size="19" transform="translate(795.292 187)">attention</text><text font-family="Cambria Math,Cambria Math_MSFontService,sans-serif" font-weight="400" font-size="19" transform="translate(614.994 537)">洧</text><text font-family="Cambria Math,Cambria Math_MSFontService,sans-serif" font-weight="400" font-size="19" transform="translate(683.548 474)">洧놎</text><text font-family="Cambria Math,Cambria Math_MSFontService,sans-serif" font-weight="400" font-size="14" transform="translate(696.781 478)">1</text><text font-family="Cambria Math,Cambria Math_MSFontService,sans-serif" font-weight="400" font-size="19" transform="translate(754.621 473)">洧</text><text font-family="Cambria Math,Cambria Math_MSFontService,sans-serif" font-weight="400" font-size="14" transform="translate(768.521 477)">1</text><text font-family="Cambria Math,Cambria Math_MSFontService,sans-serif" font-weight="400" font-size="19" transform="translate(826.859 473)">洧놓</text><text font-family="Cambria Math,Cambria Math_MSFontService,sans-serif" font-weight="400" font-size="14" transform="translate(838.592 477)">1</text><rect x="671" y="286" width="124" height="32" stroke="#000000" stroke-width="2" stroke-miterlimit="8" fill="#CCE7CF"/><text font-family="Times New Roman,Times New Roman_MSFontService,sans-serif" font-weight="400" font-size="19" transform="translate(701.12 309)">Softmax</text><rect x="671" y="342" width="124" height="33" stroke="#000000" stroke-width="2" stroke-miterlimit="8" fill="#FFF2CC"/><text font-family="Times New Roman,Times New Roman_MSFontService,sans-serif" font-weight="400" font-size="19" transform="translate(712.454 365)">Scale</text><rect x="671" y="399" width="124" height="32" stroke="#000000" stroke-width="2" stroke-miterlimit="8" fill="#DAE3F3"/><text font-family="Times New Roman,Times New Roman_MSFontService,sans-serif" font-weight="400" font-size="19" transform="translate(702.037 422)">MatMul</text><rect x="726" y="229" width="124" height="32" stroke="#000000" stroke-width="2" stroke-miterlimit="8" fill="#DAE3F3"/><text font-family="Times New Roman,Times New Roman_MSFontService,sans-serif" font-weight="400" font-size="19" transform="translate(757.499 252)">MatMul</text><path d="M1-4.26561e-06 1.00008 17.9457-0.999923 17.9457-1 4.26561e-06ZM4.00007 16.6124 0.000104987 24.6124-3.99993 16.6124Z" transform="matrix(1 0 0 -1 695 455.612)"/><path d="M1-4.26561e-06 1.00008 17.9457-0.999923 17.9457-1 4.26561e-06ZM4.00007 16.6124 0.000104987 24.6124-3.99993 16.6124Z" transform="matrix(1 0 0 -1 766 455.612)"/><path d="M1-4.26559e-06 1.00008 17.9458-0.999923 17.9458-1 4.26559e-06ZM4.00007 16.6125 0.000104987 24.6125-3.99993 16.6125Z" transform="matrix(1 0 0 -1 733 399.612)"/><path d="M1-4.26559e-06 1.00008 17.9458-0.999923 17.9458-1 4.26559e-06ZM4.00007 16.6125 0.000104987 24.6125-3.99993 16.6125Z" transform="matrix(1 0 0 -1 733 342.612)"/><path d="M1-4.26559e-06 1.00008 17.9458-0.999923 17.9458-1 4.26559e-06ZM4.00007 16.6125 0.000104987 24.6125-3.99993 16.6125Z" transform="matrix(1 0 0 -1 733 285.612)"/><path d="M1-5.39591e-07 1.0001 187.901-0.999899 187.901-1 5.39591e-07ZM4.0001 186.567 0.000104987 194.567-3.9999 186.567Z" transform="matrix(1 0 0 -1 837 455.567)"/><path d="M787 229.159 787 200 912.271 200 912.271 202 788 202 789 201 789 229.159ZM910.938 197 918.938 201 910.938 205Z"/><rect x="656" y="498" width="222" height="90" stroke="#000000" stroke-width="2" stroke-miterlimit="8" fill="#DAE3F3"/><text font-family="Times New Roman,Times New Roman_MSFontService,sans-serif" font-weight="400" font-size="19" transform="translate(678.404 579)">Linear Transformations</text><path d="M0.000260773-1 23.5286-0.993864 23.528 1.00614-0.000260773 1ZM22.196-3.99421 30.195 0.00787402 22.1939 4.00579Z" transform="matrix(1 0 0 -1 635 530.008)"/><rect x="665" y="507" width="59" height="46" stroke="#000000" stroke-width="2" stroke-miterlimit="8" fill="#FBE5D6"/><text font-family="Cambria Math,Cambria Math_MSFontService,sans-serif" font-weight="400" font-size="19" transform="translate(677.944 538)">洧</text><text font-family="Cambria Math,Cambria Math_MSFontService,sans-serif" font-weight="400" font-size="14" transform="translate(695.844 543)">1</text><text font-family="Cambria Math,Cambria Math_MSFontService,sans-serif" font-weight="400" font-size="14" transform="translate(696.277 529)">洧녟</text><rect x="737" y="507" width="59" height="46" stroke="#000000" stroke-width="2" stroke-miterlimit="8" fill="#FFE699"/><text font-family="Cambria Math,Cambria Math_MSFontService,sans-serif" font-weight="400" font-size="19" transform="translate(749.228 537)">洧</text><text font-family="Cambria Math,Cambria Math_MSFontService,sans-serif" font-weight="400" font-size="14" transform="translate(767.128 541)">1</text><text font-family="Cambria Math,Cambria Math_MSFontService,sans-serif" font-weight="400" font-size="14" transform="translate(767.562 530)">洧</text><path d="M694.248 506.953 694.057 484.675 696.057 484.658 696.248 506.936ZM691.069 486.034 695 478 699.068 485.965Z"/><path d="M765.316 507.475 765.072 484.677 767.071 484.656 767.316 507.453ZM762.086 486.042 766 478 770.086 485.957Z"/><path d="M836.204 507.479 836.046 484.673 838.046 484.66 838.204 507.465ZM833.056 486.028 837 478 841.055 485.972Z"/><text font-family="Cambria Math,Cambria Math_MSFontService,sans-serif" font-weight="400" font-size="19" transform="translate(928.017 208)">洧누</text><text font-family="Cambria Math,Cambria Math_MSFontService,sans-serif" font-weight="400" font-size="14" transform="translate(939.417 211)">1</text><text font-family="Cambria Math,Cambria Math_MSFontService,sans-serif" font-weight="400" font-size="19" transform="translate(909.725 537)">洧놆</text><path d="M945.741 522.565C947.547 523.041 948.934 524.069 949.902 525.649 950.87 527.229 951.354 529.136 951.354 531.369 951.354 533.608 950.872 535.514 949.907 537.088 948.942 538.662 947.554 539.687 945.741 540.164L945.519 539.449C946.947 538.973 948.01 538.033 948.706 536.629 949.401 535.225 949.749 533.441 949.749 531.276 949.749 529.185 949.403 527.449 948.71 526.067 948.017 524.684 946.944 523.755 945.491 523.279ZM931.674 522.565 931.925 523.279C930.478 523.755 929.406 524.684 928.71 526.067 928.015 527.449 927.667 529.185 927.667 531.276 927.667 533.441 928.015 535.225 928.71 536.629 929.406 538.033 930.468 538.973 931.897 539.449L931.674 540.164C929.862 539.687 928.474 538.662 927.509 537.088 926.544 535.514 926.062 533.608 926.062 531.369 926.062 529.136 926.546 527.229 927.514 525.649 928.481 524.069 929.868 523.041 931.674 522.565Z" fill-rule="evenodd"/><text font-family="Cambria Math,Cambria Math_MSFontService,sans-serif" font-weight="400" font-size="19" transform="translate(932.138 537)">洧</text><path d="M9.20421e-07-1 107.397-0.999901 107.397 1.0001-9.20421e-07 1ZM106.064-3.9999 114.064 0.000104987 106.064 4.0001Z" transform="matrix(-1 0 0 1 910.064 530)"/><rect x="808" y="507" width="59" height="46" stroke="#000000" stroke-width="2" stroke-miterlimit="8" fill="#C5E0B4"/><text font-family="Cambria Math,Cambria Math_MSFontService,sans-serif" font-weight="400" font-size="19" transform="translate(820.775 537)">洧</text><text font-family="Cambria Math,Cambria Math_MSFontService,sans-serif" font-weight="400" font-size="14" transform="translate(838.675 541)">1</text><text font-family="Cambria Math,Cambria Math_MSFontService,sans-serif" font-weight="400" font-size="14" transform="translate(839.108 529)">洧녤</text></g></svg>