<svg width="512" height="744" xmlns="http://www.w3.org/2000/svg" xmlns:xlink="http://www.w3.org/1999/xlink" overflow="hidden"><g transform="translate(-41 124)"><rect x="116" y="170" width="174" height="242" stroke="#000000" stroke-width="2" stroke-miterlimit="8" fill="#F3F3F4"/><rect x="154" y="336" width="124" height="54" stroke="#000000" stroke-width="2" stroke-miterlimit="8" fill="#FFE2BB"/><text font-family="Times New Roman,Times New Roman_MSFontService,sans-serif" font-weight="400" font-size="19" transform="translate(172.681 358)">Multi</text><text font-family="Times New Roman,Times New Roman_MSFontService,sans-serif" font-weight="400" font-size="19" transform="translate(214.181 358)">-</text><text font-family="Times New Roman,Times New Roman_MSFontService,sans-serif" font-weight="400" font-size="19" transform="translate(220.348 358)">Head</text><text font-family="Times New Roman,Times New Roman_MSFontService,sans-serif" font-weight="400" font-size="19" transform="translate(181.015 380)">Attentio</text><text font-family="Times New Roman,Times New Roman_MSFontService,sans-serif" font-weight="400" font-size="19" transform="translate(242.181 380)">n</text><rect x="154" y="218" width="124" height="54" stroke="#000000" stroke-width="2" stroke-miterlimit="8" fill="#C2E8F7"/><text font-family="Times New Roman,Times New Roman_MSFontService,sans-serif" font-weight="400" font-size="19" transform="translate(168.598 252)">Feedforwar</text><text font-family="Times New Roman,Times New Roman_MSFontService,sans-serif" font-weight="400" font-size="19" transform="translate(254.598 252)">d</text><path d="M1-1.65742e-06 1.00009 56.6771-0.999906 56.6771-1 1.65742e-06ZM4.00009 55.3437 0.000104987 63.3437-3.99991 55.3437Z" transform="matrix(1 0 0 -1 216 335.344)"/><rect x="158" y="493" width="116" height="44" stroke="#000000" stroke-width="2" stroke-miterlimit="8" fill="#FCE0E1"/><text font-family="Times New Roman,Times New Roman_MSFontService,sans-serif" font-weight="400" font-size="19" transform="translate(196.018 511)">Input</text><text font-family="Times New Roman,Times New Roman_MSFontService,sans-serif" font-weight="400" font-size="19" transform="translate(172.685 533)">Embedding</text><text font-family="Cambria Math,Cambria Math_MSFontService,sans-serif" font-weight="400" font-size="19" transform="translate(71.6978 283)">ğ‘</text><text font-family="Cambria Math,Cambria Math_MSFontService,sans-serif" font-weight="400" font-size="19" transform="translate(89.9645 283)">Ã—</text><rect x="154" y="181" width="124" height="32" stroke="#000000" stroke-width="2" stroke-miterlimit="8" fill="#CCE7CF"/><text font-family="Times New Roman,Times New Roman_MSFontService,sans-serif" font-weight="400" font-size="19" transform="translate(166.515 204)">Add &amp; Norm</text><rect x="154" y="298" width="124" height="32" stroke="#000000" stroke-width="2" stroke-miterlimit="8" fill="#CCE7CF"/><text font-family="Times New Roman,Times New Roman_MSFontService,sans-serif" font-weight="400" font-size="19" transform="translate(166.515 321)">Add &amp; Norm</text><path d="M202.5 457C202.5 448.992 208.768 442.5 216.5 442.5 224.232 442.5 230.5 448.992 230.5 457 230.5 465.008 224.232 471.5 216.5 471.5 208.768 471.5 202.5 465.008 202.5 457Z" stroke="#000000" stroke-width="1.33333" stroke-miterlimit="8" fill="#FFFFFF" fill-rule="evenodd"/><text font-family="Calibri,Calibri_MSFontService,sans-serif" font-weight="400" font-size="24" transform="translate(209.953 463)">+</text><path d="M138.5 457.5C138.5 449.768 144.992 443.5 153 443.5 161.008 443.5 167.5 449.768 167.5 457.5 167.5 465.232 161.008 471.5 153 471.5 144.992 471.5 138.5 465.232 138.5 457.5Z" stroke="#000000" stroke-width="1.33333" stroke-miterlimit="8" fill="#FFFFFF" fill-rule="evenodd"/><path d="M138.5 456.907C141.536 454.342 144.573 451.777 147.919 452.688 151.265 453.598 155.313 461.583 158.577 462.369 161.84 463.155 164.67 460.279 167.5 457.404" stroke="#000000" stroke-width="1.33333" stroke-miterlimit="8" fill="none" fill-rule="evenodd"/><path d="M0 0 35.2039 0.525039" stroke="#000000" stroke-width="2" stroke-miterlimit="8" fill="none" fill-rule="evenodd" transform="matrix(1 0 0 -1 167 456.525)"/><text font-family="Times New Roman,Times New Roman_MSFontService,sans-serif" font-weight="400" font-size="19" transform="translate(53.2667 447)">Positional</text><text font-family="Times New Roman,Times New Roman_MSFontService,sans-serif" font-weight="400" font-size="19" transform="translate(54.8534 469)">Encoding</text><path d="M0.999982-0.0059481 1.27182 45.6956-0.72814 45.7075-0.999982 0.0059481ZM4.26384 44.3444 0.311496 52.3681-3.73602 44.392Z" transform="matrix(1 0 0 -1 216 442.368)"/><path d="M0-1 39.6758-1 39.6758 19.1774 38.6758 18.1774 46.1858 18.1774 46.1858 20.1774 37.6758 20.1774 37.6758 0 38.6758 1 0 1ZM44.8525 15.1774 52.8525 19.1774 44.8525 23.1774Z" transform="matrix(-1.83697e-16 -1 -1 1.83697e-16 216.177 441.852)"/><path d="M215 441.853 215 402.176 234.898 402.176 233.898 403.176 233.898 395.667 235.898 395.667 235.898 404.176 216 404.176 217 403.176 217 441.853ZM230.898 397 234.898 389 238.898 397Z"/><path d="M215.883 427.158 129 427.158 129 313 147.333 313 147.333 315 130 315 131 314 131 426.158 130 425.158 215.883 425.158ZM146 310 154 314 146 318Z"/><path d="M215.645 288.939 129 288.939 129 196 147.333 196 147.333 198 130 198 131 197 131 287.939 130 286.939 215.645 286.939ZM146 193 154 197 146 201Z"/><rect x="301" y="38" width="173" height="374" stroke="#000000" stroke-width="2" stroke-miterlimit="8" fill="#F3F3F4"/><rect x="314" y="317" width="124" height="73" stroke="#000000" stroke-width="2" stroke-miterlimit="8" fill="#FFE2BB"/><text font-family="Times New Roman,Times New Roman_MSFontService,sans-serif" font-weight="400" font-size="19" transform="translate(346.428 338)">Masked</text><text font-family="Times New Roman,Times New Roman_MSFontService,sans-serif" font-weight="400" font-size="19" transform="translate(332.508 360)">Multi</text><text font-family="Times New Roman,Times New Roman_MSFontService,sans-serif" font-weight="400" font-size="19" transform="translate(374.008 360)">-</text><text font-family="Times New Roman,Times New Roman_MSFontService,sans-serif" font-weight="400" font-size="19" transform="translate(380.175 360)">Head</text><text font-family="Times New Roman,Times New Roman_MSFontService,sans-serif" font-weight="400" font-size="19" transform="translate(340.841 383)">Attention</text><rect x="314" y="88" width="124" height="54" stroke="#000000" stroke-width="2" stroke-miterlimit="8" fill="#C2E8F7"/><text font-family="Times New Roman,Times New Roman_MSFontService,sans-serif" font-weight="400" font-size="19" transform="translate(328.113 122)">Feedforwar</text><text font-family="Times New Roman,Times New Roman_MSFontService,sans-serif" font-weight="400" font-size="19" transform="translate(414.113 122)">d</text><path d="M375.311 317.328 375.033 261.672 377.033 261.662 377.311 317.318ZM372.04 263.02 376 255 380.04 262.98Z"/><rect x="318" y="493" width="116" height="44" stroke="#000000" stroke-width="2" stroke-miterlimit="8" fill="#FCE0E1"/><text font-family="Times New Roman,Times New Roman_MSFontService,sans-serif" font-weight="400" font-size="19" transform="translate(356.113 511)">Input</text><text font-family="Times New Roman,Times New Roman_MSFontService,sans-serif" font-weight="400" font-size="19" transform="translate(332.78 533)">Embedding</text><text font-family="Cambria Math,Cambria Math_MSFontService,sans-serif" font-weight="400" font-size="19" transform="translate(496.257 236)">ğ‘</text><text font-family="Cambria Math,Cambria Math_MSFontService,sans-serif" font-weight="400" font-size="19" transform="translate(514.523 236)">Ã—</text><rect x="314" y="51" width="124" height="32" stroke="#000000" stroke-width="2" stroke-miterlimit="8" fill="#CCE7CF"/><text font-family="Times New Roman,Times New Roman_MSFontService,sans-serif" font-weight="400" font-size="19" transform="translate(326.03 74)">Add &amp; Norm</text><rect x="314" y="280" width="124" height="32" stroke="#000000" stroke-width="2" stroke-miterlimit="8" fill="#CCE7CF"/><text font-family="Times New Roman,Times New Roman_MSFontService,sans-serif" font-weight="400" font-size="19" transform="translate(326.341 302)">Add &amp; Norm</text><path d="M362.5 457C362.5 448.992 368.768 442.5 376.5 442.5 384.232 442.5 390.5 448.992 390.5 457 390.5 465.008 384.232 471.5 376.5 471.5 368.768 471.5 362.5 465.008 362.5 457Z" stroke="#000000" stroke-width="1.33333" stroke-miterlimit="8" fill="#FFFFFF" fill-rule="evenodd"/><text font-family="Calibri,Calibri_MSFontService,sans-serif" font-weight="400" font-size="24" transform="translate(369.78 463)">+</text><path d="M421.5 457C421.5 448.992 427.768 442.5 435.5 442.5 443.232 442.5 449.5 448.992 449.5 457 449.5 465.008 443.232 471.5 435.5 471.5 427.768 471.5 421.5 465.008 421.5 457Z" stroke="#000000" stroke-width="1.33333" stroke-miterlimit="8" fill="#FFFFFF" fill-rule="evenodd"/><path d="M421.5 456.907C424.432 454.342 427.363 451.777 430.594 452.688 433.825 453.598 437.734 461.583 440.885 462.369 444.036 463.155 446.768 460.279 449.5 457.404" stroke="#000000" stroke-width="1.33333" stroke-miterlimit="8" fill="none" fill-rule="evenodd"/><path d="M420.713 456.182 390 456" stroke="#000000" stroke-width="2" stroke-miterlimit="8" fill="none" fill-rule="evenodd"/><text font-family="Times New Roman,Times New Roman_MSFontService,sans-serif" font-weight="400" font-size="19" transform="translate(461.567 447)">Positional</text><text font-family="Times New Roman,Times New Roman_MSFontService,sans-serif" font-weight="400" font-size="19" transform="translate(463.153 469)">Encoding</text><path d="M0.999982-0.00594811 1.27182 45.6955-0.72814 45.7074-0.999982 0.00594811ZM4.26384 44.3443 0.311496 52.368-3.73602 44.3919Z" transform="matrix(1 0 0 -1 376 442.368)"/><path d="M0-1 39.6758-1 39.6758 19.1774 38.6758 18.1774 46.1858 18.1774 46.1858 20.1774 37.6758 20.1774 37.6758 0 38.6758 1 0 1ZM44.8525 15.1774 52.8525 19.1774 44.8525 23.1774Z" transform="matrix(-1.83697e-16 -1 -1 1.83697e-16 376.177 441.852)"/><path d="M375 441.853 375 402.176 394.898 402.176 393.898 403.176 393.898 395.667 395.898 395.667 395.898 404.176 376 404.176 377 403.176 377 441.853ZM390.898 397 394.898 389 398.898 397Z"/><path d="M0-1 86.801-1 86.801 131.765 68.4678 131.765 68.4678 129.765 85.801 129.765 84.801 130.765 84.801 0 85.801 1 0 1ZM69.8012 134.765 61.8012 130.765 69.8012 126.765Z" transform="matrix(1 0 0 -1 376 426.765)"/><path d="M1-4.70976e-06 1.00007 15.6247-0.999926 15.6247-1 4.70976e-06ZM4.00007 14.2913 0.000104987 22.2913-3.99993 14.2914Z" transform="matrix(1 0 0 -1 376 493.291)"/><path d="M0.999927-0.012042 1.1881 15.6131-0.811756 15.6372-0.999927 0.012042ZM4.17183 14.2437 0.268451 22.2913-3.82759 14.3401Z" transform="matrix(1 0 0 -1 216 493.291)"/><rect x="314" y="201" width="124" height="54" stroke="#000000" stroke-width="2" stroke-miterlimit="8" fill="#FFE2BB"/><text font-family="Times New Roman,Times New Roman_MSFontService,sans-serif" font-weight="400" font-size="19" transform="translate(332.197 224)">Multi</text><text font-family="Times New Roman,Times New Roman_MSFontService,sans-serif" font-weight="400" font-size="19" transform="translate(373.697 224)">-</text><text font-family="Times New Roman,Times New Roman_MSFontService,sans-serif" font-weight="400" font-size="19" transform="translate(379.863 224)">Head</text><text font-family="Times New Roman,Times New Roman_MSFontService,sans-serif" font-weight="400" font-size="19" transform="translate(340.53 246)">Attentio</text><text font-family="Times New Roman,Times New Roman_MSFontService,sans-serif" font-weight="400" font-size="19" transform="translate(401.697 246)">n</text><path d="M1-1.79454e-06 1.00009 51.8367-0.999907 51.8368-1 1.79454e-06ZM4.00009 50.5034 0.000104987 58.5034-3.99991 50.5034Z" transform="matrix(1 0 0 -1 376 200.503)"/><rect x="313" y="164" width="124" height="32" stroke="#000000" stroke-width="2" stroke-miterlimit="8" fill="#CCE7CF"/><text font-family="Times New Roman,Times New Roman_MSFontService,sans-serif" font-weight="400" font-size="19" transform="translate(325.437 187)">Add &amp; Norm</text><path d="M0-1 86.5123-1 86.5123 90.6934 68.1792 90.6934 68.1792 88.6934 85.5123 88.6934 84.5123 89.6934 84.5123 0 85.5123 1 0 1ZM69.5125 93.6934 61.5125 89.6934 69.5125 85.6934Z" transform="matrix(1 0 0 -1 376 269.693)"/><path d="M0 1-23.9997 1-22.9997 0-22.9997 79.1781-23.9997 78.1781 88.8364 78.1781 88.8364 121.848 80.503 121.848 80.503 119.848 87.8364 119.848 86.8364 120.848 86.8364 79.1781 87.8364 80.1781-24.9997 80.1781-24.9997-1 0-1ZM81.8363 124.848 73.8363 120.848 81.8363 116.848Z" transform="matrix(1.83697e-16 1 1 -1.83697e-16 216 181)"/><path d="M0 1-23.9999 1-22.9999 0-22.9999 79.4242-23.9999 78.4242 88.8187 78.4242 88.8187 141.338 80.4874 141.338 80.4874 139.338 87.8187 139.338 86.8187 140.338 86.8187 79.4242 87.8187 80.4242-24.9999 80.4242-24.9999-1 0-1ZM81.8208 144.338 73.8208 140.338 81.8208 136.338Z" transform="matrix(1.83697e-16 1 1 -1.83697e-16 216 181)"/><path d="M0-1 87.2364-1 87.2364 87.7384 68.9033 87.7384 68.9033 85.7384 86.2364 85.7384 85.2364 86.7384 85.2364 0 86.2364 1 0 1ZM70.2366 90.7384 62.2366 86.7384 70.2366 82.7384Z" transform="matrix(1 0 0 -1 376 153.738)"/><text font-family="Times New Roman,Times New Roman_MSFontService,sans-serif" font-weight="400" font-size="19" transform="translate(192.351 581)">Inputs</text><path d="M1-4.02646e-06 1.00008 19.4076-0.999922 19.4076-1 4.02646e-06ZM4.00007 18.0742 0.000104987 26.0742-3.99993 18.0742Z" transform="matrix(1 0 0 -1 216 563.074)"/><text font-family="Times New Roman,Times New Roman_MSFontService,sans-serif" font-weight="400" font-size="19" transform="translate(346.356 581)">Outputs</text><text font-family="Times New Roman,Times New Roman_MSFontService,sans-serif" font-weight="400" font-size="19" transform="translate(324.436 603)">(shifted right)</text><path d="M375.156 562.546 375.041 543.673 377.041 543.66 377.156 562.534ZM372.049 545.024 376 537 380.049 544.975Z"/><rect x="314" y="-6" width="124" height="32" stroke="#000000" stroke-width="2" stroke-miterlimit="8" fill="#BDD7EE"/><text font-family="Times New Roman,Times New Roman_MSFontService,sans-serif" font-weight="400" font-size="19" transform="translate(351.758 16)">Linear</text><rect x="314" y="-55" width="124" height="32" stroke="#000000" stroke-width="2" stroke-miterlimit="8" fill="#A9D18E"/><text font-family="Times New Roman,Times New Roman_MSFontService,sans-serif" font-weight="400" font-size="19" transform="translate(344.508 -33)">Softmax</text><path d="M0.999926-0.0121475 1.23044 18.9625-0.769414 18.9868-0.999926 0.0121475ZM4.21402 17.5928 0.311496 25.6408-3.78539 17.69Z" transform="matrix(1 0 0 -1 376 51.6408)"/><path d="M1-6.24532e-06 1.00006 10.1438-0.999937 10.1438-1 6.24532e-06ZM4.00005 8.81047 0.000104987 16.8105-3.99994 8.81052Z" transform="matrix(1 0 0 -1 376 -6.1895)"/><text font-family="Times New Roman,Times New Roman_MSFontService,sans-serif" font-weight="400" font-size="19" transform="translate(349.938 -100)">Output</text><text font-family="Times New Roman,Times New Roman_MSFontService,sans-serif" font-weight="400" font-size="19" transform="translate(328.691 -78)">Probabilities</text><path d="M375.234-54.9012 375.091-65.3203 377.091-65.3476 377.234-54.9285ZM372.11-63.946 376-72 380.109-64.0555Z"/></g></svg>