<svg width="512" height="744" xmlns="http://www.w3.org/2000/svg" xmlns:xlink="http://www.w3.org/1999/xlink" overflow="hidden"><g transform="translate(-165 0)"><rect x="240" y="294" width="174" height="242" stroke="#000000" stroke-width="2" stroke-miterlimit="8" fill="#F3F3F4"/><rect x="279" y="460" width="123" height="54" stroke="#000000" stroke-width="2" stroke-miterlimit="8" fill="#FFE2BB"/><text font-family="Times New Roman,Times New Roman_MSFontService,sans-serif" font-weight="400" font-size="19" transform="translate(296.932 482)">Multi</text><text font-family="Times New Roman,Times New Roman_MSFontService,sans-serif" font-weight="400" font-size="19" transform="translate(338.432 482)">-</text><text font-family="Times New Roman,Times New Roman_MSFontService,sans-serif" font-weight="400" font-size="19" transform="translate(344.598 482)">Head</text><text font-family="Times New Roman,Times New Roman_MSFontService,sans-serif" font-weight="400" font-size="19" transform="translate(305.265 504)">Attention</text><rect x="279" y="342" width="123" height="54" stroke="#000000" stroke-width="2" stroke-miterlimit="8" fill="#C2E8F7"/><text font-family="Times New Roman,Times New Roman_MSFontService,sans-serif" font-weight="400" font-size="19" transform="translate(292.848 376)">Feedforward</text><path d="M1-1.65742e-06 1.00009 56.6771-0.999906 56.6771-1 1.65742e-06ZM4.00009 55.3437 0.000104987 63.3437-3.99991 55.3437Z" transform="matrix(1 0 0 -1 341 459.344)"/><rect x="282" y="617" width="116" height="44" stroke="#000000" stroke-width="2" stroke-miterlimit="8" fill="#FCE0E1"/><text font-family="Times New Roman,Times New Roman_MSFontService,sans-serif" font-weight="400" font-size="19" transform="translate(320.268 635)">Input</text><text font-family="Times New Roman,Times New Roman_MSFontService,sans-serif" font-weight="400" font-size="19" transform="translate(296.935 657)">Embedding</text><text font-family="Cambria Math,Cambria Math_MSFontService,sans-serif" font-weight="400" font-size="19" transform="translate(195.948 408)">ğ‘</text><text font-family="Cambria Math,Cambria Math_MSFontService,sans-serif" font-weight="400" font-size="19" transform="translate(214.215 408)">Ã—</text><rect x="279" y="305" width="123" height="32" stroke="#000000" stroke-width="2" stroke-miterlimit="8" fill="#CCE7CF"/><text font-family="Times New Roman,Times New Roman_MSFontService,sans-serif" font-weight="400" font-size="19" transform="translate(290.765 328)">Add &amp; Norm</text><rect x="279" y="422" width="123" height="32" stroke="#000000" stroke-width="2" stroke-miterlimit="8" fill="#CCE7CF"/><text font-family="Times New Roman,Times New Roman_MSFontService,sans-serif" font-weight="400" font-size="19" transform="translate(290.765 445)">Add &amp; Norm</text><path d="M326.5 581C326.5 572.992 332.768 566.5 340.5 566.5 348.232 566.5 354.5 572.992 354.5 581 354.5 589.008 348.232 595.5 340.5 595.5 332.768 595.5 326.5 589.008 326.5 581Z" stroke="#000000" stroke-width="1.33333" stroke-miterlimit="8" fill="#FFFFFF" fill-rule="evenodd"/><text font-family="Calibri,Calibri_MSFontService,sans-serif" font-weight="400" font-size="24" transform="translate(334.204 587)">+</text><path d="M262.5 581.5C262.5 573.768 268.992 567.5 277 567.5 285.008 567.5 291.5 573.768 291.5 581.5 291.5 589.232 285.008 595.5 277 595.5 268.992 595.5 262.5 589.232 262.5 581.5Z" stroke="#000000" stroke-width="1.33333" stroke-miterlimit="8" fill="#FFFFFF" fill-rule="evenodd"/><path d="M262.5 580.907C265.536 578.342 268.573 575.777 271.919 576.688 275.265 577.598 279.314 585.583 282.577 586.369 285.841 587.155 288.67 584.279 291.5 581.404" stroke="#000000" stroke-width="1.33333" stroke-miterlimit="8" fill="none" fill-rule="evenodd"/><path d="M0 0 35.2039 0.525039" stroke="#000000" stroke-width="2" stroke-miterlimit="8" fill="none" fill-rule="evenodd" transform="matrix(1 0 0 -1 291 581.525)"/><text font-family="Times New Roman,Times New Roman_MSFontService,sans-serif" font-weight="400" font-size="19" transform="translate(177.517 571)">Positional</text><text font-family="Times New Roman,Times New Roman_MSFontService,sans-serif" font-weight="400" font-size="19" transform="translate(179.104 593)">Encoding</text><path d="M0.999982-0.0059481 1.27182 45.6956-0.72814 45.7075-0.999982 0.0059481ZM4.26384 44.3444 0.311496 52.3681-3.73602 44.392Z" transform="matrix(1 0 0 -1 340 566.368)"/><path d="M0-1 39.6758-1 39.6758 19.1774 38.6758 18.1774 46.1858 18.1774 46.1858 20.1774 37.6758 20.1774 37.6758 0 38.6758 1 0 1ZM44.8525 15.1774 52.8525 19.1774 44.8525 23.1774Z" transform="matrix(-1.83697e-16 -1 -1 1.83697e-16 340.177 565.852)"/><path d="M339 565.852 339 526.176 358.898 526.176 357.898 527.176 357.898 519.667 359.898 519.667 359.898 528.176 340 528.176 341 527.176 341 565.852ZM354.898 521 358.898 513 362.898 521Z"/><path d="M340.883 551.158 254 551.158 254 437 272.333 437 272.333 439 255 439 256 438 256 550.158 255 549.158 340.883 549.158ZM271 434 279 438 271 442Z"/><path d="M340.645 412.939 254 412.939 254 320 272.333 320 272.333 322 255 322 256 321 256 411.939 255 410.939 340.645 410.939ZM271 317 279 321 271 325Z"/><rect x="425" y="162" width="174" height="374" stroke="#000000" stroke-width="2" stroke-miterlimit="8" fill="#F3F3F4"/><rect x="438" y="442" width="124" height="72" stroke="#000000" stroke-width="2" stroke-miterlimit="8" fill="#FFE2BB"/><text font-family="Times New Roman,Times New Roman_MSFontService,sans-serif" font-weight="400" font-size="19" transform="translate(470.678 462)">Masked</text><text font-family="Times New Roman,Times New Roman_MSFontService,sans-serif" font-weight="400" font-size="19" transform="translate(456.758 484)">Multi</text><text font-family="Times New Roman,Times New Roman_MSFontService,sans-serif" font-weight="400" font-size="19" transform="translate(498.258 484)">-</text><text font-family="Times New Roman,Times New Roman_MSFontService,sans-serif" font-weight="400" font-size="19" transform="translate(504.425 484)">Head</text><text font-family="Times New Roman,Times New Roman_MSFontService,sans-serif" font-weight="400" font-size="19" transform="translate(465.092 507)">Attention</text><rect x="438" y="212" width="124" height="54" stroke="#000000" stroke-width="2" stroke-miterlimit="8" fill="#C2E8F7"/><text font-family="Times New Roman,Times New Roman_MSFontService,sans-serif" font-weight="400" font-size="19" transform="translate(452.364 246)">Feedforward</text><path d="M499.311 441.328 499.033 385.672 501.033 385.662 501.311 441.318ZM496.04 387.02 500 379 504.04 386.98Z"/><rect x="442" y="617" width="116" height="44" stroke="#000000" stroke-width="2" stroke-miterlimit="8" fill="#FCE0E1"/><text font-family="Times New Roman,Times New Roman_MSFontService,sans-serif" font-weight="400" font-size="19" transform="translate(474.11 635)">Outpu</text><text font-family="Times New Roman,Times New Roman_MSFontService,sans-serif" font-weight="400" font-size="19" transform="translate(520.777 635)">t</text><text font-family="Times New Roman,Times New Roman_MSFontService,sans-serif" font-weight="400" font-size="19" transform="translate(457.03 657)">Embedding</text><text font-family="Cambria Math,Cambria Math_MSFontService,sans-serif" font-weight="400" font-size="19" transform="translate(620.507 360)">ğ‘</text><text font-family="Cambria Math,Cambria Math_MSFontService,sans-serif" font-weight="400" font-size="19" transform="translate(638.774 360)">Ã—</text><rect x="438" y="175" width="124" height="32" stroke="#000000" stroke-width="2" stroke-miterlimit="8" fill="#CCE7CF"/><text font-family="Times New Roman,Times New Roman_MSFontService,sans-serif" font-weight="400" font-size="19" transform="translate(450.28 198)">Add &amp; Norm</text><rect x="438" y="404" width="124" height="32" stroke="#000000" stroke-width="2" stroke-miterlimit="8" fill="#CCE7CF"/><text font-family="Times New Roman,Times New Roman_MSFontService,sans-serif" font-weight="400" font-size="19" transform="translate(450.592 426)">Add &amp; Norm</text><path d="M486.5 581C486.5 572.992 492.768 566.5 500.5 566.5 508.232 566.5 514.5 572.992 514.5 581 514.5 589.008 508.232 595.5 500.5 595.5 492.768 595.5 486.5 589.008 486.5 581Z" stroke="#000000" stroke-width="1.33333" stroke-miterlimit="8" fill="#FFFFFF" fill-rule="evenodd"/><text font-family="Calibri,Calibri_MSFontService,sans-serif" font-weight="400" font-size="24" transform="translate(494.03 587)">+</text><path d="M545.5 581.5C545.5 573.768 551.768 567.5 559.5 567.5 567.232 567.5 573.5 573.768 573.5 581.5 573.5 589.232 567.232 595.5 559.5 595.5 551.768 595.5 545.5 589.232 545.5 581.5Z" stroke="#000000" stroke-width="1.33333" stroke-miterlimit="8" fill="#FFFFFF" fill-rule="evenodd"/><path d="M545.5 580.907C548.432 578.342 551.363 575.777 554.594 576.688 557.825 577.598 561.734 585.583 564.885 586.369 568.036 587.155 570.768 584.279 573.5 581.404" stroke="#000000" stroke-width="1.33333" stroke-miterlimit="8" fill="none" fill-rule="evenodd"/><path d="M544.713 581.182 514 581" stroke="#000000" stroke-width="2" stroke-miterlimit="8" fill="none" fill-rule="evenodd"/><text font-family="Times New Roman,Times New Roman_MSFontService,sans-serif" font-weight="400" font-size="19" transform="translate(585.817 571)">Positional</text><text font-family="Times New Roman,Times New Roman_MSFontService,sans-serif" font-weight="400" font-size="19" transform="translate(587.404 593)">Encoding</text><path d="M0.999982-0.00594811 1.27182 45.6955-0.72814 45.7074-0.999982 0.00594811ZM4.26384 44.3443 0.311496 52.368-3.73602 44.3919Z" transform="matrix(1 0 0 -1 500 566.368)"/><path d="M0-1 39.6758-1 39.6758 19.1774 38.6758 18.1774 46.1858 18.1774 46.1858 20.1774 37.6758 20.1774 37.6758 0 38.6758 1 0 1ZM44.8525 15.1774 52.8525 19.1774 44.8525 23.1774Z" transform="matrix(-1.83697e-16 -1 -1 1.83697e-16 500.177 565.852)"/><path d="M499 565.852 499 526.176 518.898 526.176 517.898 527.176 517.898 519.667 519.898 519.667 519.898 528.176 500 528.176 501 527.176 501 565.852ZM514.898 521 518.898 513 522.898 521Z"/><path d="M0-1 86.801-1 86.801 131.765 68.4678 131.765 68.4678 129.765 85.801 129.765 84.801 130.765 84.801 0 85.801 1 0 1ZM69.8012 134.765 61.8012 130.765 69.8012 126.765Z" transform="matrix(1 0 0 -1 500 550.765)"/><path d="M1-4.70976e-06 1.00007 15.6247-0.999926 15.6247-1 4.70976e-06ZM4.00007 14.2913 0.000104987 22.2913-3.99993 14.2914Z" transform="matrix(1 0 0 -1 500 617.291)"/><path d="M0.999927-0.012042 1.1881 15.6131-0.811756 15.6372-0.999927 0.012042ZM4.17183 14.2437 0.268451 22.2913-3.82759 14.3401Z" transform="matrix(1 0 0 -1 340 617.291)"/><rect x="438" y="325" width="124" height="54" stroke="#000000" stroke-width="2" stroke-miterlimit="8" fill="#FFE2BB"/><text font-family="Times New Roman,Times New Roman_MSFontService,sans-serif" font-weight="400" font-size="19" transform="translate(456.447 348)">Multi</text><text font-family="Times New Roman,Times New Roman_MSFontService,sans-serif" font-weight="400" font-size="19" transform="translate(497.947 348)">-</text><text font-family="Times New Roman,Times New Roman_MSFontService,sans-serif" font-weight="400" font-size="19" transform="translate(504.114 348)">Head</text><text font-family="Times New Roman,Times New Roman_MSFontService,sans-serif" font-weight="400" font-size="19" transform="translate(464.78 370)">Attention</text><path d="M1-1.79454e-06 1.00009 51.8367-0.999907 51.8368-1 1.79454e-06ZM4.00009 50.5034 0.000104987 58.5034-3.99991 50.5034Z" transform="matrix(1 0 0 -1 500 324.503)"/><rect x="437" y="288" width="124" height="32" stroke="#000000" stroke-width="2" stroke-miterlimit="8" fill="#CCE7CF"/><text font-family="Times New Roman,Times New Roman_MSFontService,sans-serif" font-weight="400" font-size="19" transform="translate(449.688 311)">Add &amp; Norm</text><path d="M0-1 86.5123-1 86.5123 90.6934 68.1792 90.6934 68.1792 88.6934 85.5123 88.6934 84.5123 89.6934 84.5123 0 85.5123 1 0 1ZM69.5125 93.6934 61.5125 89.6934 69.5125 85.6934Z" transform="matrix(1 0 0 -1 500 393.693)"/><path d="M0 1-23.9997 1-22.9997 0-22.9997 79.1781-23.9997 78.1781 88.8364 78.1781 88.8364 121.848 80.503 121.848 80.503 119.848 87.8364 119.848 86.8364 120.848 86.8364 79.1781 87.8364 80.1781-24.9997 80.1781-24.9997-1 0-1ZM81.8363 124.848 73.8363 120.848 81.8363 116.848Z" transform="matrix(1.83697e-16 1 1 -1.83697e-16 341 305)"/><path d="M0 1-23.9999 1-22.9999 0-22.9999 79.4242-23.9999 78.4242 88.8187 78.4242 88.8187 141.338 80.4874 141.338 80.4874 139.338 87.8187 139.338 86.8187 140.338 86.8187 79.4242 87.8187 80.4242-24.9999 80.4242-24.9999-1 0-1ZM81.8208 144.338 73.8208 140.338 81.8208 136.338Z" transform="matrix(1.83697e-16 1 1 -1.83697e-16 341 305)"/><path d="M0-1 87.2364-1 87.2364 87.7384 68.9033 87.7384 68.9033 85.7384 86.2364 85.7384 85.2364 86.7384 85.2364 0 86.2364 1 0 1ZM70.2366 90.7384 62.2366 86.7384 70.2366 82.7384Z" transform="matrix(1 0 0 -1 500 277.738)"/><text font-family="Times New Roman,Times New Roman_MSFontService,sans-serif" font-weight="400" font-size="19" transform="translate(316.602 706)">Inputs</text><path d="M1-4.02646e-06 1.00008 19.4076-0.999922 19.4076-1 4.02646e-06ZM4.00007 18.0742 0.000104987 26.0742-3.99993 18.0742Z" transform="matrix(1 0 0 -1 340 687.074)"/><text font-family="Times New Roman,Times New Roman_MSFontService,sans-serif" font-weight="400" font-size="19" transform="translate(470.606 705)">Outputs</text><text font-family="Times New Roman,Times New Roman_MSFontService,sans-serif" font-weight="400" font-size="19" transform="translate(448.686 727)">(shifted right)</text><path d="M499.156 686.546 499.041 667.673 501.041 667.66 501.156 686.534ZM496.049 669.024 500 661 504.049 668.975Z"/><rect x="438" y="118" width="124" height="32" stroke="#000000" stroke-width="2" stroke-miterlimit="8" fill="#BDD7EE"/><text font-family="Times New Roman,Times New Roman_MSFontService,sans-serif" font-weight="400" font-size="19" transform="translate(476.009 140)">Linear</text><rect x="438" y="69" width="124" height="32" stroke="#000000" stroke-width="2" stroke-miterlimit="8" fill="#A9D18E"/><text font-family="Times New Roman,Times New Roman_MSFontService,sans-serif" font-weight="400" font-size="19" transform="translate(468.758 92)">Softmax</text><path d="M0.999926-0.0121475 1.23044 18.9625-0.769414 18.9868-0.999926 0.0121475ZM4.21402 17.5928 0.311496 25.6408-3.78539 17.69Z" transform="matrix(1 0 0 -1 500 175.641)"/><path d="M1-6.24532e-06 1.00006 10.1438-0.999937 10.1438-1 6.24532e-06ZM4.00005 8.81047 0.000104987 16.8105-3.99994 8.81052Z" transform="matrix(1 0 0 -1 500 117.811)"/><text font-family="Times New Roman,Times New Roman_MSFontService,sans-serif" font-weight="400" font-size="19" transform="translate(474.188 24)">Output</text><text font-family="Times New Roman,Times New Roman_MSFontService,sans-serif" font-weight="400" font-size="19" transform="translate(452.941 46)">Probabilities</text><path d="M499.234 69.0988 499.091 58.6797 501.091 58.6524 501.234 69.0715ZM496.11 60.054 500 52 504.109 59.9445Z"/></g></svg>