<svg width="645" height="41" xmlns="http://www.w3.org/2000/svg" xmlns:xlink="http://www.w3.org/1999/xlink" overflow="hidden"><g transform="translate(-95 -302)"><rect x="96.5001" y="303.5" width="129" height="39" stroke="#000000" stroke-width="1.33333" stroke-miterlimit="8" fill="#D8E2F3"/><text font-family="Cambria Math,Cambria Math_MSFontService,sans-serif" font-weight="400" font-size="19" transform="translate(148.958 328)">𝑆</text><text font-family="Cambria Math,Cambria Math_MSFontService,sans-serif" font-weight="400" font-size="14" transform="translate(157.972 332)">0</text><rect x="258.5" y="303.5" width="128" height="39" stroke="#000000" stroke-width="1.33333" stroke-miterlimit="8" fill="#D8E2F3"/><text font-family="Cambria Math,Cambria Math_MSFontService,sans-serif" font-weight="400" font-size="19" transform="translate(276.591 328)">𝑆</text><text font-family="Cambria Math,Cambria Math_MSFontService,sans-serif" font-weight="400" font-size="14" transform="translate(285.172 332)">1</text><text font-family="Cambria Math,Cambria Math_MSFontService,sans-serif" font-weight="400" font-size="19" transform="translate(298.965 328)">=</text><text font-family="Cambria Math,Cambria Math_MSFontService,sans-serif" font-weight="400" font-size="19" transform="translate(318.151 328)">ℎ</text><text font-family="Cambria Math,Cambria Math_MSFontService,sans-serif" font-weight="400" font-size="19" transform="translate(328.805 328)">(</text><text font-family="Cambria Math,Cambria Math_MSFontService,sans-serif" font-weight="400" font-size="19" transform="translate(336.471 328)">𝑆</text><text font-family="Cambria Math,Cambria Math_MSFontService,sans-serif" font-weight="400" font-size="14" transform="translate(345.485 332)">0</text><text font-family="Cambria Math,Cambria Math_MSFontService,sans-serif" font-weight="400" font-size="19" transform="translate(354.091 328)">)</text><rect x="449.5" y="303.5" width="128" height="39" stroke="#000000" stroke-width="1.33333" stroke-miterlimit="8" fill="#D8E2F3"/><text font-family="Cambria Math,Cambria Math_MSFontService,sans-serif" font-weight="400" font-size="19" transform="translate(457.429 328)">𝑆</text><text font-family="Cambria Math,Cambria Math_MSFontService,sans-serif" font-weight="400" font-size="14" transform="translate(466.442 332)">𝑛</text><text font-family="Cambria Math,Cambria Math_MSFontService,sans-serif" font-weight="400" font-size="19" transform="translate(481.469 328)">=</text><text font-family="Cambria Math,Cambria Math_MSFontService,sans-serif" font-weight="400" font-size="19" transform="translate(500.656 328)">ℎ</text><text font-family="Cambria Math,Cambria Math_MSFontService,sans-serif" font-weight="400" font-size="19" transform="translate(511.309 328)">(</text><text font-family="Cambria Math,Cambria Math_MSFontService,sans-serif" font-weight="400" font-size="19" transform="translate(518.976 328)">𝑆</text><text font-family="Cambria Math,Cambria Math_MSFontService,sans-serif" font-weight="400" font-size="14" transform="translate(527.989 332)">𝑛</text><text font-family="Cambria Math,Cambria Math_MSFontService,sans-serif" font-weight="400" font-size="14" transform="translate(537.056 332)">−</text><text font-family="Cambria Math,Cambria Math_MSFontService,sans-serif" font-weight="400" font-size="14" transform="translate(546.889 332)">1</text><text font-family="Cambria Math,Cambria Math_MSFontService,sans-serif" font-weight="400" font-size="19" transform="translate(555.496 328)">)</text><rect x="610.5" y="303.5" width="128" height="39" stroke="#000000" stroke-width="1.33333" stroke-miterlimit="8" fill="#D8E2F3"/><text font-family="Cambria Math,Cambria Math_MSFontService,sans-serif" font-weight="400" font-size="19" transform="translate(665.672 328)">𝐹</text><path d="M225 322 251.388 322 251.388 324 225 324ZM250.055 319 258.055 323 250.055 327Z"/><path d="M3.17615e-06-1 26.3881-0.999916 26.3881 1.00008-3.17615e-06 1ZM25.0548-3.99992 33.0548 0.000104987 25.0548 4.00008Z" transform="matrix(1 0 0 -1 577 323)"/><path d="M386 322 394 322 394 324 386 324ZM400 322 408 322 408 324 400 324ZM414 322 422 322 422 324 414 324ZM428 322 436 322 436 324 428 324ZM442 322 442.103 322 442.103 324 442 324ZM440.769 319 448.769 323 440.769 327Z"/></g></svg>