<svg width="325" height="516" xmlns="http://www.w3.org/2000/svg" xmlns:xlink="http://www.w3.org/1999/xlink" overflow="hidden"><g transform="translate(-282 -97)"><rect x="349.5" y="99.5001" width="191" height="75" stroke="#000000" stroke-width="1.33333" stroke-miterlimit="8" fill="#FFFFFF"/><text font-family="DengXian,DengXian_MSFontService,sans-serif" font-weight="400" font-size="24" transform="translate(372.511 144)">要</text><text font-family="DengXian,DengXian_MSFontService,sans-serif" font-weight="400" font-size="24" transform="translate(396.511 144)">翻译的句子</text><rect x="349.5" y="208.5" width="191" height="75" stroke="#000000" stroke-width="1.33333" stroke-miterlimit="8" fill="#FFFFFF"/><text font-family="DengXian,DengXian_MSFontService,sans-serif" font-weight="400" font-size="24" transform="translate(360.511 253)">学习得到的</text><text font-family="DengXian,DengXian_MSFontService,sans-serif" font-weight="400" font-size="24" transform="translate(480.511 253)">参数</text><rect x="283.5" y="317.5" width="323" height="76" stroke="#000000" stroke-width="1.33333" stroke-miterlimit="8" fill="#FFFFFF"/><text font-family="DengXian,DengXian_MSFontService,sans-serif" font-weight="400" font-size="24" transform="translate(299.094 363)">参考句</text><text font-family="DengXian,DengXian_MSFontService,sans-serif" font-weight="400" font-size="24" transform="translate(371.094 363)">1</text><text font-family="DengXian,DengXian_MSFontService,sans-serif" font-weight="400" font-size="24" transform="translate(390.261 363)">参考句</text><text font-family="DengXian,DengXian_MSFontService,sans-serif" font-weight="400" font-size="24" transform="translate(462.261 363)">2 …</text><text font-family="DengXian,DengXian_MSFontService,sans-serif" font-weight="400" font-size="24" transform="translate(504.761 363)">参考句</text><text font-family="DengXian,DengXian_MSFontService,sans-serif" font-weight="400" font-size="24" transform="translate(576.761 363)">n</text><rect x="349.5" y="427.5" width="191" height="75" stroke="#000000" stroke-width="1.33333" stroke-miterlimit="8" fill="#FFFFFF"/><text font-family="DengXian,DengXian_MSFontService,sans-serif" font-weight="400" font-size="24" transform="translate(396.511 472)">机器转导</text><rect x="349.5" y="536.5" width="191" height="75" stroke="#000000" stroke-width="1.33333" stroke-miterlimit="8" fill="#FFFFFF"/><text font-family="DengXian,DengXian_MSFontService,sans-serif" font-weight="400" font-size="24" transform="translate(396.511 581)">候选翻译</text><path d="M446.167 174.5 446.167 202.216 444.833 202.216 444.833 174.5ZM449.5 200.883 445.5 208.883 441.5 200.883Z"/><path d="M446.167 283.5 446.167 311.216 444.833 311.216 444.833 283.5ZM449.5 309.883 445.5 317.883 441.5 309.883Z"/><path d="M446.167 393.5 446.167 421.216 444.833 421.216 444.833 393.5ZM449.5 419.883 445.5 427.883 441.5 419.883Z"/><path d="M446.167 502.5 446.167 530.216 444.833 530.216 444.833 502.5ZM449.5 528.883 445.5 536.883 441.5 528.883Z"/></g></svg>